<?xml version="1.0" encoding="UTF-8" standalone="no"?>
<svg
   xmlns:dc="http://purl.org/dc/elements/1.1/"
   xmlns:cc="http://creativecommons.org/ns#"
   xmlns:rdf="http://www.w3.org/1999/02/22-rdf-syntax-ns#"
   xmlns:svg="http://www.w3.org/2000/svg"
   xmlns="http://www.w3.org/2000/svg"
   xmlns:sodipodi="http://sodipodi.sourceforge.net/DTD/sodipodi-0.dtd"
   xmlns:inkscape="http://www.inkscape.org/namespaces/inkscape"
   inkscape:version="1.0 (4035a4fb49, 2020-05-01)"
   sodipodi:docname="sm-logo.svg"
   viewBox="0 0 312.87961 278.80469"
   height="278.80469"
   width="312.87961"
   id="svg833"
   version="1.1">
  <metadata
     id="metadata839">
    <rdf:RDF>
      <cc:Work
         rdf:about="">
        <dc:format>image/svg+xml</dc:format>
        <dc:type
           rdf:resource="http://purl.org/dc/dcmitype/StillImage" />
        <dc:title></dc:title>
      </cc:Work>
    </rdf:RDF>
  </metadata>
  <defs
     id="defs837" />
  <sodipodi:namedview
     inkscape:current-layer="g841"
     inkscape:window-maximized="0"
     inkscape:window-y="0"
     inkscape:window-x="96"
     inkscape:cy="153.53934"
     inkscape:cx="228.81543"
     inkscape:zoom="1.1238245"
     fit-margin-bottom="0"
     fit-margin-right="0"
     fit-margin-left="0"
     fit-margin-top="0"
     showgrid="false"
     id="namedview835"
     inkscape:window-height="1019"
     inkscape:window-width="1424"
     inkscape:pageshadow="2"
     inkscape:pageopacity="0"
     guidetolerance="10"
     gridtolerance="10"
     objecttolerance="10"
     borderopacity="1"
     bordercolor="#666666"
     pagecolor="#ffffff" />
  <g
     transform="translate(-16.56772,-12.443628)"
     id="g841"
     inkscape:label="Image"
     inkscape:groupmode="layer">
    <g
       transform="translate(0.88981689,-10.677824)"
       id="g845">
      <path
         id="path859"
         d="m 167.07895,291.41667 c 0.048,-1.16495 0.28494,-1.4019 0.60416,-0.60417 0.28887,0.72187 0.25335,1.58438 -0.0789,1.91667 -0.3323,0.33229 -0.56864,-0.25834 -0.52522,-1.3125 z M 74.404988,261.75 72.5,259.5 l 2.25,1.90499 C 76.864445,263.19521 77.455241,264 76.654988,264 c -0.189757,0 -1.202257,-1.0125 -2.25,-2.25 z M 270.5,261 c 0.99549,-1.1 2.03498,-2 2.30998,-2 0.275,0 -0.31449,0.9 -1.30998,2 -0.99549,1.1 -2.03498,2 -2.30998,2 -0.275,0 0.31449,-0.9 1.30998,-2 z M 82.32814,232.5 c 0.0044,-3.85 0.185183,-5.30246 0.401658,-3.2277 0.216476,2.07477 0.212846,5.22477 -0.0081,7 C 82.50082,238.04754 82.323704,236.35 82.32814,232.5 Z M 270.75,235.33772 c 0.6875,-0.27741 1.8125,-0.27741 2.5,0 0.6875,0.27741 0.125,0.50439 -1.25,0.50439 -1.375,0 -1.9375,-0.22698 -1.25,-0.50439 z M 71.8125,234.31689 c 0.721875,-0.28887 1.584375,-0.25335 1.916667,0.0789 0.332291,0.33229 -0.258334,0.56864 -1.3125,0.52522 -1.164943,-0.048 -1.4019,-0.28494 -0.604167,-0.60416 z M 258.27236,230 c 0,-2.475 0.19502,-3.4875 0.43337,-2.25 0.23836,1.2375 0.23836,3.2625 0,4.5 -0.23835,1.2375 -0.43337,0.225 -0.43337,-2.25 z M 70.8125,225.31689 c 0.721875,-0.28887 1.584375,-0.25335 1.916667,0.0789 0.332291,0.33229 -0.258334,0.56864 -1.3125,0.52522 -1.164943,-0.048 -1.4019,-0.28494 -0.604167,-0.60416 z M 258.30987,219.5 c 0.006,-3.3 0.1923,-4.52944 0.41486,-2.73209 0.22256,1.79735 0.21797,4.49735 -0.0102,6 -0.22818,1.50265 -0.41027,0.0321 -0.40466,-3.26791 z m -176.114921,0 c 0.02038,-1.65 0.244498,-2.20394 0.498042,-1.23097 0.253543,0.97297 0.236869,2.32297 -0.03705,3 C 82.382014,221.94606 82.174569,221.15 82.194949,219.5 Z m -7.116002,-2.08333 c 0.04798,-1.16495 0.284941,-1.4019 0.604167,-0.60417 0.288871,0.72187 0.253344,1.58437 -0.07895,1.91667 -0.332292,0.33229 -0.568641,-0.25834 -0.52522,-1.3125 z M 82.194949,213.5 c 0.02038,-1.65 0.244498,-2.20394 0.498042,-1.23097 0.253543,0.97297 0.236869,2.32297 -0.03705,3 C 82.382014,215.94606 82.174569,215.15 82.194949,213.5 Z M 293.25,203.28375 c 1.5125,-0.22913 3.9875,-0.22913 5.5,0 1.5125,0.22912 0.275,0.41659 -2.75,0.41659 -3.025,0 -4.2625,-0.18747 -2.75,-0.41659 z M 72.5,202 c 0.339919,-0.55 0.816476,-1 1.059017,-1 C 73.801558,201 74,201.45 74,202 c 0,0.55 -0.476558,1 -1.059017,1 -0.582459,0 -0.780902,-0.45 -0.440983,-1 z M 271,201.941 c 0,-0.58246 0.45,-0.7809 1,-0.44098 0.55,0.33992 1,0.81648 1,1.05902 0,0.24254 -0.45,0.44098 -1,0.44098 -0.55,0 -1,-0.47656 -1,-1.05902 z m 27.8125,-58.62409 c 0.72187,-0.28887 1.58438,-0.25335 1.91667,0.0789 0.33229,0.33229 -0.25834,0.56864 -1.3125,0.52522 -1.16495,-0.048 -1.4019,-0.28494 -0.60417,-0.60416 z M 261.07895,95.416667 c 0.048,-1.164943 0.28494,-1.4019 0.60416,-0.604167 0.28887,0.721875 0.25335,1.584375 -0.0789,1.916667 -0.33229,0.332291 -0.56864,-0.258334 -0.52522,-1.3125 z M 75,62.622445 c 0,-0.207656 0.7875,-0.995156 1.75,-1.75 C 78.336056,59.628574 78.371426,59.663944 77.127555,61.25 75.821186,62.915748 75,63.445479 75,62.622445 Z"
         style="fill:#b9b9b9;fill-opacity:1" />
      <path
         id="path857"
         d="m 163.8125,301.31689 c 0.72187,-0.28887 1.58437,-0.25335 1.91667,0.0789 0.33229,0.33229 -0.25834,0.56864 -1.3125,0.52522 -1.16495,-0.048 -1.4019,-0.28494 -0.60417,-0.60416 z M 100.75,251.29427 c 1.2375,-0.23836 3.2625,-0.23836 4.5,0 1.2375,0.23835 0.225,0.43337 -2.25,0.43337 -2.475,0 -3.4875,-0.19502 -2.25,-0.43337 z m 8.0625,0.0226 c 0.72187,-0.28887 1.58437,-0.25335 1.91667,0.0789 0.33229,0.33229 -0.25834,0.56864 -1.3125,0.52522 -1.16495,-0.048 -1.4019,-0.28494 -0.60417,-0.60416 z m 38.4375,-0.0658 c 11.4125,-0.16044 30.0875,-0.16044 41.5,0 11.4125,0.16044 2.075,0.29172 -20.75,0.29172 -22.825,0 -32.1625,-0.13128 -20.75,-0.29172 z m 64.5,0.0431 c 1.2375,-0.23836 3.2625,-0.23836 4.5,0 1.2375,0.23835 0.225,0.43337 -2.25,0.43337 -2.475,0 -3.4875,-0.19502 -2.25,-0.43337 z m 23.5,-0.0293 c 2.6125,-0.206 6.8875,-0.206 9.5,0 2.6125,0.206 0.475,0.37454 -4.75,0.37454 -5.225,0 -7.3625,-0.16854 -4.75,-0.37454 z m 51.82895,-23.84829 c 0.048,-1.16495 0.28494,-1.4019 0.60416,-0.60417 0.28887,0.72187 0.25335,1.58437 -0.0789,1.91667 -0.33229,0.33229 -0.56864,-0.25834 -0.52522,-1.3125 z m 2.73355,-18.09978 c 0.72187,-0.28887 1.58438,-0.25335 1.91667,0.0789 0.33229,0.33229 -0.25834,0.56864 -1.3125,0.52522 -1.16495,-0.048 -1.4019,-0.28494 -0.60417,-0.60416 z m -254,-6 c 0.721875,-0.28887 1.584375,-0.25335 1.916667,0.0789 0.332291,0.33229 -0.258334,0.56864 -1.3125,0.52522 -1.164943,-0.048 -1.4019,-0.28494 -0.604167,-0.60416 z m 251.9375,0.0208 c 0.6875,-0.27741 1.8125,-0.27741 2.5,0 0.6875,0.27741 0.125,0.50439 -1.25,0.50439 -1.375,0 -1.9375,-0.22698 -1.25,-0.50439 z M 58.564293,150.29313 c -0.542685,-1.4252 -0.427821,-1.54006 0.559795,-0.5598 0.683418,0.67834 0.990671,1.48524 0.682784,1.79313 -0.307887,0.30789 -0.867048,-0.24711 -1.242579,-1.23333 z M 99,91.622445 c 0,-0.207656 0.7875,-0.995156 1.75,-1.75 1.58606,-1.243871 1.62143,-1.208501 0.37756,0.377555 C 99.821186,91.915748 99,92.445479 99,91.622445 Z M 243.87244,90.25 C 242.62857,88.663944 242.66394,88.628574 244.25,89.872445 245.91575,91.178814 246.44548,92 245.62244,92 c -0.20765,0 -0.99515,-0.7875 -1.75,-1.75 z m 27,-26 C 269.62857,62.663944 269.66394,62.628574 271.25,63.872445 272.91575,65.178814 273.44548,66 272.62244,66 c -0.20765,0 -0.99515,-0.7875 -1.75,-1.75 z M 174.8125,52.316886 c 0.72187,-0.288871 1.58437,-0.253344 1.91667,0.07895 0.33229,0.332292 -0.25834,0.568641 -1.3125,0.52522 -1.16495,-0.04798 -1.4019,-0.284941 -0.60417,-0.604167 z m -38,-10 c 0.72187,-0.288871 1.58437,-0.253344 1.91667,0.07895 0.33229,0.332292 -0.25834,0.568641 -1.3125,0.52522 -1.16495,-0.04798 -1.4019,-0.284941 -0.60417,-0.604167 z M 209.15789,40 c 0,-1.375 0.22698,-1.9375 0.50439,-1.25 0.27741,0.6875 0.27741,1.8125 0,2.5 -0.27741,0.6875 -0.50439,0.125 -0.50439,-1.25 z"
         style="fill:#a3a3a3;fill-opacity:1" />
      <path
         id="path855"
         d="m 166.8125,301.31689 c 0.72187,-0.28887 1.58437,-0.25335 1.91667,0.0789 0.33229,0.33229 -0.25834,0.56864 -1.3125,0.52522 -1.16495,-0.048 -1.4019,-0.28494 -0.60417,-0.60416 z m 6,-19 c 0.72187,-0.28887 1.58437,-0.25335 1.91667,0.0789 0.33229,0.33229 -0.25834,0.56864 -1.3125,0.52522 -1.16495,-0.048 -1.4019,-0.28494 -0.60417,-0.60416 z m -12.73355,-5.90022 c 0.048,-1.16495 0.28494,-1.4019 0.60416,-0.60417 0.28887,0.72187 0.25335,1.58438 -0.0789,1.91667 -0.3323,0.33229 -0.56864,-0.25834 -0.52522,-1.3125 z m 6.73355,-8.09978 c 0.72187,-0.28887 1.58437,-0.25335 1.91667,0.0789 0.33229,0.33229 -0.25834,0.56864 -1.3125,0.52522 -1.16495,-0.048 -1.4019,-0.28494 -0.60417,-0.60416 z M 64.078947,217.41667 c 0.04798,-1.16495 0.284941,-1.4019 0.604167,-0.60417 0.288871,0.72187 0.253344,1.58437 -0.07895,1.91667 -0.332292,0.33229 -0.568641,-0.25834 -0.52522,-1.3125 z M 18.872445,209.25 c -1.243871,-1.58606 -1.208501,-1.62143 0.377555,-0.37756 0.9625,0.75485 1.75,1.54235 1.75,1.75 0,0.82304 -0.821186,0.29331 -2.127555,-1.37244 z M 266.8125,205.31689 c 0.72187,-0.28887 1.58438,-0.25335 1.91667,0.0789 0.33229,0.33229 -0.25834,0.56864 -1.3125,0.52522 -1.16495,-0.048 -1.4019,-0.28494 -0.60417,-0.60416 z M 250.75,204.33772 c 0.6875,-0.27741 1.8125,-0.27741 2.5,0 0.6875,0.27741 0.125,0.50439 -1.25,0.50439 -1.375,0 -1.9375,-0.22698 -1.25,-0.50439 z m -160,-3.04345 c 1.2375,-0.23836 3.2625,-0.23836 4.5,0 1.2375,0.23835 0.225,0.43337 -2.25,0.43337 -2.475,0 -3.4875,-0.19502 -2.25,-0.43337 z m -57.671053,-44.8776 c 0.04798,-1.16495 0.284941,-1.4019 0.604167,-0.60417 0.288871,0.72187 0.253344,1.58437 -0.07895,1.91667 -0.332292,0.33229 -0.568641,-0.25834 -0.52522,-1.3125 z M 96,94.622445 c 0,-0.207656 0.7875,-0.995156 1.75,-1.75 C 99.336056,91.628574 99.371426,91.663944 98.127555,93.25 96.821186,94.915748 96,95.445479 96,94.622445 Z m 78.07895,-50.205778 c 0.048,-1.164943 0.28494,-1.4019 0.60416,-0.604167 0.28887,0.721875 0.25335,1.584375 -0.0789,1.916667 -0.3323,0.332291 -0.56864,-0.258334 -0.52522,-1.3125 z M 160.8125,33.316886 c 0.72187,-0.288871 1.58437,-0.253344 1.91667,0.07895 0.33229,0.332292 -0.25834,0.568641 -1.3125,0.52522 -1.16495,-0.04798 -1.4019,-0.284941 -0.60417,-0.604167 z"
         style="fill:#8c8c8c;fill-opacity:1" />
      <path
         id="path853"
         d="m 170.75,301.29427 c 1.2375,-0.23836 3.2625,-0.23836 4.5,0 1.2375,0.23835 0.225,0.43337 -2.25,0.43337 -2.475,0 -3.4875,-0.19502 -2.25,-0.43337 z m 0,-33 c 1.2375,-0.23836 3.2625,-0.23836 4.5,0 1.2375,0.23835 0.225,0.43337 -2.25,0.43337 -2.475,0 -3.4875,-0.19502 -2.25,-0.43337 z M 57.157895,227 c 0,-1.375 0.226973,-1.9375 0.504386,-1.25 0.277412,0.6875 0.277412,1.8125 0,2.5 -0.277413,0.6875 -0.504386,0.125 -0.504386,-1.25 z M 62.8125,206.31689 c 0.721875,-0.28887 1.584375,-0.25335 1.916667,0.0789 0.332291,0.33229 -0.258334,0.56864 -1.3125,0.52522 -1.164943,-0.048 -1.4019,-0.28494 -0.604167,-0.60416 z m 221,0 c 0.72187,-0.28887 1.58438,-0.25335 1.91667,0.0789 0.33229,0.33229 -0.25834,0.56864 -1.3125,0.52522 -1.16495,-0.048 -1.4019,-0.28494 -0.60417,-0.60416 z M 91.5,205 c -0.339919,-0.55 0.110081,-1 1,-1 0.889919,0 1.339919,0.45 1,1 -0.339919,0.55 -0.789919,1 -1,1 -0.210081,0 -0.660081,-0.45 -1,-1 z m 162.5,0 c 0,-0.55 0.47656,-1 1.05902,-1 0.58246,0 0.7809,0.45 0.44098,1 -0.33992,0.55 -0.81648,1 -1.05902,1 C 254.19844,206 254,205.55 254,205 Z M 33.299664,163 c 0,-3.025 0.187466,-4.2625 0.41659,-2.75 0.229125,1.5125 0.229125,3.9875 0,5.5 -0.229124,1.5125 -0.41659,0.275 -0.41659,-2.75 z m 32.858231,3 c 0,-1.375 0.226973,-1.9375 0.504386,-1.25 0.277412,0.6875 0.277412,1.8125 0,2.5 -0.277413,0.6875 -0.504386,0.125 -0.504386,-1.25 z m 212.037055,-0.5 c 0.0204,-1.65 0.2445,-2.20394 0.49804,-1.23097 0.25354,0.97297 0.23687,2.32297 -0.0371,3 -0.27393,0.67703 -0.48137,-0.11903 -0.46099,-1.76903 z m 33.11492,-3 c 0.006,-3.3 0.1923,-4.52944 0.41486,-2.73209 0.22256,1.79735 0.21797,4.49735 -0.0102,6 -0.22818,1.50265 -0.41027,0.0321 -0.40466,-3.26791 z m -241.114921,0 c 0.02038,-1.65 0.244498,-2.20394 0.498042,-1.23097 0.253543,0.97297 0.236869,2.32297 -0.03705,3 C 70.382014,164.94606 70.174569,164.15 70.194949,162.5 Z M 274.15789,162 c 0,-1.375 0.22698,-1.9375 0.50439,-1.25 0.27741,0.6875 0.27741,1.8125 0,2.5 -0.27741,0.6875 -0.50439,0.125 -0.50439,-1.25 z m 33.03706,-0.5 c 0.0204,-1.65 0.2445,-2.20394 0.49804,-1.23097 0.25354,0.97297 0.23687,2.32297 -0.0371,3 -0.27393,0.67703 -0.48137,-0.11903 -0.46099,-1.76903 z M 278.15789,159 c 0,-1.375 0.22698,-1.9375 0.50439,-1.25 0.27741,0.6875 0.27741,1.8125 0,2.5 -0.27741,0.6875 -0.50439,0.125 -0.50439,-1.25 z M 94,90.622445 c 0,-0.207656 0.7875,-0.995156 1.75,-1.75 C 97.336056,87.628574 97.371426,87.663944 96.127555,89.25 94.821186,90.915748 94,91.445479 94,90.622445 Z M 245.92431,86.25 243.5,83.5 l 2.75,2.424314 c 1.5125,1.333373 2.75,2.570873 2.75,2.75 0,0.784274 -0.8098,0.145975 -3.07569,-2.424314 z M 98,86.622445 c 0,-0.207656 0.7875,-0.995156 1.75,-1.75 1.58606,-1.243871 1.62143,-1.208501 0.37756,0.377555 C 98.821186,86.915748 98,87.445479 98,86.622445 Z m 72.76166,-26.329706 c 1.24391,-0.239193 3.04391,-0.230112 4,0.02018 0.95609,0.250292 -0.0617,0.445996 -2.26166,0.434897 -2.2,-0.0111 -2.98225,-0.215885 -1.73834,-0.455077 z m -2.94916,-3.975853 c 0.72187,-0.288871 1.58437,-0.253344 1.91667,0.07895 0.33229,0.332292 -0.25834,0.568641 -1.3125,0.52522 -1.16495,-0.04798 -1.4019,-0.284941 -0.60417,-0.604167 z M 171.25,27.310674 c 0.9625,-0.251527 2.5375,-0.251527 3.5,0 0.9625,0.251528 0.175,0.457323 -1.75,0.457323 -1.925,0 -2.7125,-0.205795 -1.75,-0.457323 z m -4.5,-3.972955 c 0.6875,-0.277412 1.8125,-0.277412 2.5,0 0.6875,0.277413 0.125,0.504386 -1.25,0.504386 -1.375,0 -1.9375,-0.226973 -1.25,-0.504386 z m 10.0625,-0.02083 c 0.72187,-0.288871 1.58437,-0.253344 1.91667,0.07895 0.33229,0.332292 -0.25834,0.568641 -1.3125,0.52522 -1.16495,-0.04798 -1.4019,-0.284941 -0.60417,-0.604167 z"
         style="fill:#767676;fill-opacity:1" />
      <path
         id="path851"
         d="m 169.25,297.28375 c 1.5125,-0.22913 3.9875,-0.22913 5.5,0 1.5125,0.22912 0.275,0.41659 -2.75,0.41659 -3.025,0 -4.2625,-0.18747 -2.75,-0.41659 z m -1.17105,-17.86708 c 0.048,-1.16495 0.28494,-1.4019 0.60416,-0.60417 0.28887,0.72187 0.25335,1.58438 -0.0789,1.91667 -0.3323,0.33229 -0.56864,-0.25834 -0.52522,-1.3125 z M 221,276 c -0.90129,-0.58246 -1.02463,-0.97549 -0.30902,-0.98469 0.65504,-0.008 1.4691,0.43469 1.80902,0.98469 0.7673,1.24153 0.42112,1.24153 -1.5,0 z m -51.73097,-11.69299 c 0.97297,-0.25354 2.32297,-0.23687 3,0.0371 0.67703,0.27393 -0.11903,0.48137 -1.76903,0.46099 -1.65,-0.0204 -2.20394,-0.2445 -1.23097,-0.49804 z m 5.54347,0.01 c 0.72187,-0.28887 1.58437,-0.25335 1.91667,0.0789 0.33229,0.33229 -0.25834,0.56864 -1.3125,0.52522 -1.16495,-0.048 -1.4019,-0.28494 -0.60417,-0.60416 z m -73,-16 c 0.72187,-0.28887 1.58437,-0.25335 1.91667,0.0789 0.33229,0.33229 -0.25834,0.56864 -1.3125,0.52522 -1.16495,-0.048 -1.4019,-0.28494 -0.60417,-0.60416 z m 4,0 c 0.72187,-0.28887 1.58437,-0.25335 1.91667,0.0789 0.33229,0.33229 -0.25834,0.56864 -1.3125,0.52522 -1.16495,-0.048 -1.4019,-0.28494 -0.60417,-0.60416 z m 5.4375,-0.006 c 0.9625,-0.25152 2.5375,-0.25152 3.5,0 0.9625,0.25153 0.175,0.45733 -1.75,0.45733 -1.925,0 -2.7125,-0.2058 -1.75,-0.45733 z m 10.5625,0.006 c 0.72187,-0.28887 1.58437,-0.25335 1.91667,0.0789 0.33229,0.33229 -0.25834,0.56864 -1.3125,0.52522 -1.16495,-0.048 -1.4019,-0.28494 -0.60417,-0.60416 z m 7,0 c 0.72187,-0.28887 1.58437,-0.25335 1.91667,0.0789 0.33229,0.33229 -0.25834,0.56864 -1.3125,0.52522 -1.16495,-0.048 -1.4019,-0.28494 -0.60417,-0.60416 z m 20.9375,-0.0649 c 8.3875,-0.16726 22.1125,-0.16726 30.5,0 8.3875,0.16726 1.525,0.3041 -15.25,0.3041 -16.775,0 -23.6375,-0.13684 -15.25,-0.3041 z m 47.0625,0.0649 c 0.72187,-0.28887 1.58437,-0.25335 1.91667,0.0789 0.33229,0.33229 -0.25834,0.56864 -1.3125,0.52522 -1.16495,-0.048 -1.4019,-0.28494 -0.60417,-0.60416 z m 4.45653,-0.01 c 0.97297,-0.25354 2.32297,-0.23687 3,0.0371 0.67703,0.27393 -0.11903,0.48137 -1.76903,0.46099 -1.65,-0.0204 -2.20394,-0.2445 -1.23097,-0.49804 z m 5.54347,0.01 c 0.72187,-0.28887 1.58437,-0.25335 1.91667,0.0789 0.33229,0.33229 -0.25834,0.56864 -1.3125,0.52522 -1.16495,-0.048 -1.4019,-0.28494 -0.60417,-0.60416 z m 12,0 c 0.72187,-0.28887 1.58437,-0.25335 1.91667,0.0789 0.33229,0.33229 -0.25834,0.56864 -1.3125,0.52522 -1.16495,-0.048 -1.4019,-0.28494 -0.60417,-0.60416 z m 5,0 c 0.72187,-0.28887 1.58437,-0.25335 1.91667,0.0789 0.33229,0.33229 -0.25834,0.56864 -1.3125,0.52522 -1.16495,-0.048 -1.4019,-0.28494 -0.60417,-0.60416 z m 22,0 c 0.72187,-0.28887 1.58437,-0.25335 1.91667,0.0789 0.33229,0.33229 -0.25834,0.56864 -1.3125,0.52522 -1.16495,-0.048 -1.4019,-0.28494 -0.60417,-0.60416 z M 57.157895,231 c 0,-1.375 0.226973,-1.9375 0.504386,-1.25 0.277412,0.6875 0.277412,1.8125 0,2.5 -0.277413,0.6875 -0.504386,0.125 -0.504386,-1.25 z M 42,229.62244 c 0,-0.20765 0.7875,-0.99515 1.75,-1.75 1.586056,-1.24387 1.621426,-1.2085 0.377555,0.37756 C 42.821186,229.91575 42,230.44548 42,229.62244 Z m 61.07895,-22.20577 c 0.048,-1.16495 0.28494,-1.4019 0.60416,-0.60417 0.28887,0.72187 0.25335,1.58437 -0.0789,1.91667 -0.3323,0.33229 -0.56864,-0.25834 -0.52522,-1.3125 z M 321,208.62244 c 0,-0.20765 0.7875,-0.99515 1.75,-1.75 1.58606,-1.24387 1.62143,-1.2085 0.37756,0.37756 C 321.82119,208.91575 321,209.44548 321,208.62244 Z m -16.1875,-2.30555 c 0.72187,-0.28887 1.58438,-0.25335 1.91667,0.0789 0.33229,0.33229 -0.25834,0.56864 -1.3125,0.52522 -1.16495,-0.048 -1.4019,-0.28494 -0.60417,-0.60416 z m -216,-2 c 0.721875,-0.28887 1.584375,-0.25335 1.916667,0.0789 0.332291,0.33229 -0.258334,0.56864 -1.3125,0.52522 -1.164943,-0.048 -1.4019,-0.28494 -0.604167,-0.60416 z m 192,-1 c 0.72187,-0.28887 1.58438,-0.25335 1.91667,0.0789 0.33229,0.33229 -0.25834,0.56864 -1.3125,0.52522 -1.16495,-0.048 -1.4019,-0.28494 -0.60417,-0.60416 z m -29,-2 c 0.72187,-0.28887 1.58437,-0.25335 1.91667,0.0789 0.33229,0.33229 -0.25834,0.56864 -1.3125,0.52522 -1.16495,-0.048 -1.4019,-0.28494 -0.60417,-0.60416 z m -200,-21 c 0.721875,-0.28887 1.584375,-0.25335 1.916667,0.0789 0.332291,0.33229 -0.258334,0.56864 -1.3125,0.52522 -1.164943,-0.048 -1.4019,-0.28494 -0.604167,-0.60416 z M 37.157895,166 c 0,-1.375 0.226973,-1.9375 0.504386,-1.25 0.277412,0.6875 0.277412,1.8125 0,2.5 -0.277413,0.6875 -0.504386,0.125 -0.504386,-1.25 z m 32.921052,0.41667 c 0.04798,-1.16495 0.284941,-1.4019 0.604167,-0.60417 0.288871,0.72187 0.253344,1.58437 -0.07895,1.91667 -0.332292,0.33229 -0.568641,-0.25834 -0.52522,-1.3125 z M 274.15789,166 c 0,-1.375 0.22698,-1.9375 0.50439,-1.25 0.27741,0.6875 0.27741,1.8125 0,2.5 -0.27741,0.6875 -0.50439,0.125 -0.50439,-1.25 z m 33,0 c 0,-1.375 0.22698,-1.9375 0.50439,-1.25 0.27741,0.6875 0.27741,1.8125 0,2.5 -0.27741,0.6875 -0.50439,0.125 -0.50439,-1.25 z M 66.157895,162 c 0,-1.375 0.226973,-1.9375 0.504386,-1.25 0.277412,0.6875 0.277412,1.8125 0,2.5 -0.277413,0.6875 -0.504386,0.125 -0.504386,-1.25 z m -28.962946,-2.5 c 0.02038,-1.65 0.244498,-2.20394 0.498042,-1.23097 0.253543,0.97297 0.236869,2.32297 -0.03705,3 C 37.382014,161.94606 37.174569,161.15 37.194949,159.5 Z m 32.883998,-1.08333 c 0.04798,-1.16495 0.284941,-1.4019 0.604167,-0.60417 0.288871,0.72187 0.253344,1.58437 -0.07895,1.91667 -0.332292,0.33229 -0.568641,-0.25834 -0.52522,-1.3125 z m 204.000003,0 c 0.048,-1.16495 0.28494,-1.4019 0.60416,-0.60417 0.28887,0.72187 0.25335,1.58437 -0.0789,1.91667 -0.33229,0.33229 -0.56864,-0.25834 -0.52522,-1.3125 z M 69,126 c -0.901292,-0.58246 -1.024633,-0.97549 -0.309017,-0.98469 0.655041,-0.008 1.469098,0.43469 1.809017,0.98469 0.767305,1.24153 0.421123,1.24153 -1.5,0 z M 235.87244,72.25 C 234.62857,70.663944 234.66394,70.628574 236.25,71.872445 237.91575,73.178814 238.44548,74 237.62244,74 c -0.20765,0 -0.99515,-0.7875 -1.75,-1.75 z M 176.8125,60.316886 c 0.72187,-0.288871 1.58437,-0.253344 1.91667,0.07895 0.33229,0.332292 -0.25834,0.568641 -1.3125,0.52522 -1.16495,-0.04798 -1.4019,-0.284941 -0.60417,-0.604167 z m -5.05084,-4.024147 c 1.24391,-0.239193 3.04391,-0.230112 4,0.02018 0.95609,0.250292 -0.0617,0.445996 -2.26166,0.434897 -2.2,-0.0111 -2.98225,-0.215885 -1.73834,-0.455077 z m 33.31729,-0.876072 c 0.048,-1.164943 0.28494,-1.4019 0.60416,-0.604167 0.28887,0.721875 0.25335,1.584375 -0.0789,1.916667 -0.3323,0.332291 -0.56864,-0.258334 -0.52522,-1.3125 z M 166.75,27.337719 c 0.6875,-0.277412 1.8125,-0.277412 2.5,0 0.6875,0.277413 0.125,0.504386 -1.25,0.504386 -1.375,0 -1.9375,-0.226973 -1.25,-0.504386 z m 10.0625,-0.02083 c 0.72187,-0.288871 1.58437,-0.253344 1.91667,0.07895 0.33229,0.332292 -0.25834,0.568641 -1.3125,0.52522 -1.16495,-0.04798 -1.4019,-0.284941 -0.60417,-0.604167 z M 171.25,23.310674 c 0.9625,-0.251527 2.5375,-0.251527 3.5,0 0.9625,0.251528 0.175,0.457323 -1.75,0.457323 -1.925,0 -2.7125,-0.205795 -1.75,-0.457323 z"
         style="fill:#606060;fill-opacity:1" />
      <path
         id="path849"
         d="m 148.50708,299.01145 c -0.35034,-0.56686 0.0511,-0.7345 0.94098,-0.39301 1.73242,0.66479 2.04939,1.38156 0.61096,1.38156 -0.51754,0 -1.21592,-0.44485 -1.55194,-0.98855 z m 29.30542,-1.69456 c 0.72187,-0.28887 1.58437,-0.25335 1.91667,0.0789 0.33229,0.33229 -0.25834,0.56864 -1.3125,0.52522 -1.16495,-0.048 -1.4019,-0.28494 -0.60417,-0.60416 z M 178.87244,284.25 c -1.24387,-1.58606 -1.2085,-1.62143 0.37756,-0.37756 0.9625,0.75485 1.75,1.54235 1.75,1.75 0,0.82304 -0.82119,0.29331 -2.12756,-1.37244 z m -79.259353,-4.43298 c 0.28881,-0.4673 0.944013,-0.59075 1.456013,-0.27431 1.30838,0.80862 1.16106,1.12396 -0.52511,1.12396 -0.800808,0 -1.219713,-0.38234 -0.930903,-0.84965 z m 68.199413,-4.50013 c 0.72187,-0.28887 1.58437,-0.25335 1.91667,0.0789 0.33229,0.33229 -0.25834,0.56864 -1.3125,0.52522 -1.16495,-0.048 -1.4019,-0.28494 -0.60417,-0.60416 z m 51.69458,-2.30544 c -0.35034,-0.56686 0.0511,-0.7345 0.94098,-0.39301 1.73242,0.66479 2.04939,1.38156 0.61096,1.38156 -0.51754,0 -1.21592,-0.44485 -1.55194,-0.98855 z m -53.69458,-8.69456 c 0.72187,-0.28887 1.58437,-0.25335 1.91667,0.0789 0.33229,0.33229 -0.25834,0.56864 -1.3125,0.52522 -1.16495,-0.048 -1.4019,-0.28494 -0.60417,-0.60416 z M 79.924314,261.25 77.5,258.5 l 2.75,2.42431 C 82.820289,263.1902 83.458588,264 82.674314,264 c -0.179127,0 -1.416627,-1.2375 -2.75,-2.75 z M 266.5,259 c 2.14824,-2.2 4.1309,-4 4.4059,-4 0.275,0 -1.25766,1.8 -3.4059,4 -2.14824,2.2 -4.1309,4 -4.4059,4 -0.275,0 1.25766,-1.8 3.4059,-4 z M 98.8125,248.31689 c 0.721875,-0.28887 1.58437,-0.25335 1.91667,0.0789 0.33229,0.33229 -0.25834,0.56864 -1.312503,0.52522 -1.164943,-0.048 -1.4019,-0.28494 -0.604167,-0.60416 z m 132,0 c 0.72187,-0.28887 1.58437,-0.25335 1.91667,0.0789 0.33229,0.33229 -0.25834,0.56864 -1.3125,0.52522 -1.16495,-0.048 -1.4019,-0.28494 -0.60417,-0.60416 z m 10.9375,0.0208 c 0.6875,-0.27741 1.8125,-0.27741 2.5,0 0.6875,0.27741 0.125,0.50439 -1.25,0.50439 -1.375,0 -1.9375,-0.22698 -1.25,-0.50439 z m -201.9375,-4.0208 c 0.721875,-0.28887 1.584375,-0.25335 1.916667,0.0789 0.332291,0.33229 -0.258334,0.56864 -1.3125,0.52522 -1.164943,-0.048 -1.4019,-0.28494 -0.604167,-0.60416 z m 248,0 c 0.72187,-0.28887 1.58438,-0.25335 1.91667,0.0789 0.33229,0.33229 -0.25834,0.56864 -1.3125,0.52522 -1.16495,-0.048 -1.4019,-0.28494 -0.60417,-0.60416 z M 85.078947,233.41667 c 0.04798,-1.16495 0.284941,-1.4019 0.604167,-0.60417 0.288871,0.72187 0.253344,1.58437 -0.07895,1.91667 -0.332292,0.33229 -0.568641,-0.25834 -0.52522,-1.3125 z M 275.54271,233.0691 c -0.31644,-0.512 -0.19299,-1.1672 0.27431,-1.45601 0.46731,-0.28881 0.84965,0.13009 0.84965,0.9309 0,1.68617 -0.31534,1.83349 -1.12396,0.52511 z M 76,232.62244 c 0,-0.20765 0.7875,-0.99515 1.75,-1.75 1.586056,-1.24387 1.621426,-1.2085 0.377555,0.37756 C 76.821186,232.91575 76,233.44548 76,232.62244 Z m 223.00836,-5.59611 c -1.16855,-0.73879 -1.22451,-1.17047 -0.25833,-1.99302 0.67831,-0.57749 1.01596,-0.75013 0.75031,-0.38365 -0.26564,0.36648 0.0182,1.27023 0.63078,2.00833 1.30212,1.56896 0.95593,1.68253 -1.12276,0.36834 z M 75,224 c -0.901292,-0.58246 -1.024633,-0.97549 -0.309017,-0.98469 0.655041,-0.008 1.469098,0.43469 1.809017,0.98469 0.767305,1.24153 0.421123,1.24153 -1.5,0 z m 10.157895,-3 c 0,-1.375 0.226973,-1.9375 0.504386,-1.25 0.277412,0.6875 0.277412,1.8125 0,2.5 -0.277413,0.6875 -0.504386,0.125 -0.504386,-1.25 z M 286.5,216 c -0.33992,-0.55 -0.14148,-1 0.44098,-1 0.58246,0 1.05902,0.45 1.05902,1 0,0.55 -0.19844,1 -0.44098,1 -0.24254,0 -0.7191,-0.45 -1.05902,-1 z M 85.269735,212.06928 c 0.07999,-1.0619 0.48237,-1.72249 0.894177,-1.46798 0.411807,0.25451 0.495248,1.12334 0.185425,1.93073 -0.781232,2.03585 -1.252597,1.83381 -1.079602,-0.46275 z m -33.536402,-0.19337 c 0.678334,-0.68342 1.485241,-0.99067 1.793128,-0.68278 0.307888,0.30789 -0.247112,0.86705 -1.233333,1.24258 -1.425198,0.54268 -1.540062,0.42782 -0.559795,-0.5598 z M 294.87244,211.25 c -1.24387,-1.58606 -1.2085,-1.62143 0.37756,-0.37756 0.9625,0.75485 1.75,1.54235 1.75,1.75 0,0.82304 -0.82119,0.29331 -2.12756,-1.37244 z m -53.79349,-5.83333 c 0.048,-1.16495 0.28494,-1.4019 0.60416,-0.60417 0.28887,0.72187 0.25335,1.58437 -0.0789,1.91667 -0.3323,0.33229 -0.56864,-0.25834 -0.52522,-1.3125 z m 47.67105,0.92105 c 0.6875,-0.27741 1.8125,-0.27741 2.5,0 0.6875,0.27741 0.125,0.50439 -1.25,0.50439 -1.375,0 -1.9375,-0.22698 -1.25,-0.50439 z m 13.0625,-0.0208 c 0.72187,-0.28887 1.58438,-0.25335 1.91667,0.0789 0.33229,0.33229 -0.25834,0.56864 -1.3125,0.52522 -1.16495,-0.048 -1.4019,-0.28494 -0.60417,-0.60416 z M 57,195.60699 c 0,-0.21616 0.698372,-0.661 1.551938,-0.98855 0.889925,-0.34149 1.291322,-0.17385 0.940983,0.39301 C 58.905663,195.96166 57,196.4169 57,195.60699 Z m -3,-4.50855 c 0,-1.03844 1.902213,-2.54172 2.465672,-1.94858 0.182935,0.19258 -0.297004,0.93038 -1.066531,1.63957 C 54.629613,191.49861 54,191.63767 54,191.09844 Z m 95.50708,-15.08699 c -0.35034,-0.56686 0.0511,-0.7345 0.94098,-0.39301 1.73242,0.66479 2.04939,1.38156 0.61096,1.38156 -0.51754,0 -1.21592,-0.44485 -1.55194,-0.98855 z M 37.078947,169.41667 c 0.04798,-1.16495 0.284941,-1.4019 0.604167,-0.60417 0.288871,0.72187 0.253344,1.58437 -0.07895,1.91667 -0.332292,0.33229 -0.568641,-0.25834 -0.52522,-1.3125 z m 18.428132,-30.40522 c -0.350339,-0.56686 0.05106,-0.7345 0.940983,-0.39301 1.732417,0.66479 2.049387,1.38156 0.610955,1.38156 -0.517541,0 -1.215913,-0.44485 -1.551938,-0.98855 z M 287.73333,114.87591 c 0.67834,-0.68342 1.48524,-0.99067 1.79313,-0.68278 0.30789,0.30789 -0.24711,0.86705 -1.23333,1.24258 -1.4252,0.54268 -1.54006,0.42782 -0.5598,-0.5598 z M 61.138321,107.66667 c -0.826907,-0.99637 -0.77361,-1.33334 0.210889,-1.33334 0.724601,0 1.317457,0.6 1.317457,1.33334 0,0.73333 -0.0949,1.33333 -0.210889,1.33333 -0.115989,0 -0.708844,-0.6 -1.317457,-1.33333 z M 254.5,81 c 0.99549,-1.1 2.03498,-2 2.30998,-2 0.275,0 -0.31449,0.9 -1.30998,2 -0.99549,1.1 -2.03498,2 -2.30998,2 -0.275,0 0.31449,-0.9 1.30998,-2 z m 0.5,-4.377555 c 0,-0.207656 0.7875,-0.995156 1.75,-1.75 1.58606,-1.243871 1.62143,-1.208501 0.37756,0.377555 C 255.82119,76.915748 255,77.445479 255,76.622445 Z M 91.632436,73.214286 C 91.365357,72.782143 91.980761,72.428571 93,72.428571 c 1.019239,0 1.634643,0.353572 1.367564,0.785715 C 94.100485,73.646429 93.485081,74 93,74 92.514919,74 91.899515,73.646429 91.632436,73.214286 Z M 73,70.5 C 74.291745,69.125 75.573628,68 75.848628,68 76.123628,68 75.291745,69.125 74,70.5 72.708255,71.875 71.426372,73 71.151372,73 70.876372,73 71.708255,71.875 73,70.5 Z m 194.55279,-5.41459 c -0.32198,-0.520967 -0.15917,-1.210648 0.3618,-1.532624 0.52097,-0.321975 1.21065,-0.159164 1.53262,0.361804 0.32198,0.520967 0.15917,1.210648 -0.3618,1.532624 -0.52097,0.321975 -1.21065,0.159164 -1.53262,-0.361804 z M 263.87244,63.25 C 262.62857,61.663944 262.66394,61.628574 264.25,62.872445 265.91575,64.178814 266.44548,65 265.62244,65 c -0.20765,0 -0.99515,-0.7875 -1.75,-1.75 z M 226,57.622445 c 0,-0.207656 0.7875,-0.995156 1.75,-1.75 1.58606,-1.243871 1.62143,-1.208501 0.37756,0.377555 C 226.82119,57.915748 226,58.445479 226,57.622445 Z M 132.5,55 c 0.33992,-0.55 0.81648,-1 1.05902,-1 0.24254,0 0.44098,0.45 0.44098,1 0,0.55 -0.47656,1 -1.05902,1 -0.58246,0 -0.7809,-0.45 -0.44098,-1 z m -26.16667,-1.456011 c 0,-0.800807 0.38234,-1.219712 0.84965,-0.930902 0.4673,0.28881 0.59075,0.944015 0.27431,1.456011 -0.80862,1.308382 -1.12396,1.161058 -1.12396,-0.525109 z M 147,50.5 c 0,-0.825 0.43588,-1.5 0.96862,-1.5 0.53273,0 0.70959,0.675 0.39301,1.5 -0.31659,0.825 -0.75246,1.5 -0.96862,1.5 C 147.17686,52 147,51.325 147,50.5 Z m 64.50708,-1.488546 c -0.35034,-0.56686 0.0511,-0.734507 0.94098,-0.393011 C 214.18048,49.283234 214.49745,50 213.05902,50 c -0.51754,0 -1.21592,-0.444846 -1.55194,-0.988546 z"
         style="fill:#494949;fill-opacity:1" />
      <path
         id="path847"
         d="m 154,299.96747 c -2.475,-0.50123 -6.27955,-1.14261 -8.45456,-1.4253 -10.91474,-1.41858 -41.16719,-13.47168 -45.31315,-18.05354 -0.402759,-0.4451 -0.10026,-0.44261 0.67222,0.006 0.95224,0.55245 1.1715,0.43782 0.6809,-0.35598 -0.39798,-0.64395 -1.14056,-0.91313 -1.650169,-0.59818 -1.123264,0.69422 -10.804134,-5.60755 -15.682814,-10.20874 C 82.309725,267.49908 80.505752,266 80.243597,266 c -1.507895,0 -12.341156,-12.30338 -11.883465,-13.4961 0.342271,-0.89195 0.04219,-1.21178 -0.8248,-0.87908 -0.806702,0.30956 -2.369857,-0.95904 -3.830687,-3.10885 l -2.467874,-3.6318 -14.368385,-0.41648 C 38.965774,244.23862 30.7,243.57528 28.5,242.99359 c -2.2,-0.58168 -5.125,-1.29512 -6.5,-1.58542 -1.375,-0.29029 -2.88829,-0.91168 -3.362868,-1.38086 -1.08594,-1.07358 0.119903,-3.14212 1.688275,-2.89611 2.682934,0.42083 18.483546,-7.23449 21.450486,-10.39265 l 2.235091,-2.37914 -7.023504,-3.29532 c -3.862927,-1.81243 -8.387574,-4.56955 -10.054772,-6.12695 -1.667198,-1.5574 -3.346593,-2.96787 -3.731989,-3.13438 -0.385395,-0.16652 -0.57707,-0.67371 -0.425942,-1.12709 0.151127,-0.45338 -0.120961,-0.57975 -0.604641,-0.28082 -0.982662,0.60732 -4.331982,-2.75202 -6.026859,-6.04489 -1.40376,-2.72728 0.416797,-3.62331 4.804845,-2.36484 1.684496,0.48311 6.733163,1.19856 11.21926,1.58988 7.745397,0.67564 8.118165,0.61607 7.39526,-1.18175 C 39.143939,201.35196 37.83997,196.225 36.664933,191 33.768988,178.12269 33.59054,147.82641 36.336453,135.23182 39.680233,119.89501 49.182436,95.376684 51.280083,96.673101 51.865469,97.034889 52.007426,96.821033 51.609392,96.177 50.206768,93.907507 63.440394,75.498487 74.021489,65 85.093001,54.014926 99.202391,43.389016 101.13291,44.582143 c 0.70177,0.433719 0.91026,0.296726 0.51695,-0.339672 -0.81059,-1.311555 19.75297,-11.729574 21.2843,-10.783164 0.58621,0.3623 1.06584,0.251771 1.06584,-0.245621 0,-1.257293 15.69221,-5.822435 26.38099,-7.674696 11.51523,-1.995478 32.65766,-1.976212 44.69279,0.04073 18.59025,3.115492 40.51747,11.885673 55.25234,22.099148 7.00335,4.854375 8.7221,6.434103 8.09836,7.443329 -0.2906,0.470195 0.13616,0.599902 0.94834,0.288238 2.0654,-0.79257 18.78051,16.191766 25.81516,26.230972 C 302.45495,106.28321 311,133.05095 311,162.49868 c 0,12.88591 -1.79713,27.18661 -4.57738,36.4247 -0.7421,2.46581 -1.18602,4.64655 -0.98649,4.84609 0.29988,0.29987 6.46111,-0.30051 20.95624,-2.0421 7.19463,-0.86444 -4.85182,12.28168 -16.9143,18.45833 -8.19366,4.19559 -8.24579,4.24671 -6.61839,6.49018 0.90218,1.2437 1.98676,2.27541 2.41019,2.2927 0.42343,0.0173 2.44873,1.09123 4.50066,2.38656 2.05194,1.29533 6.78351,3.3863 10.5146,4.6466 3.73109,1.2603 6.63047,2.75147 6.44305,3.31371 -0.96764,2.90292 -25.23086,6.4517 -35.8762,5.24731 l -5.7098,-0.64599 -5.18802,6.29162 c -7.90266,9.58372 -21.25729,22.15515 -22.36194,21.05049 C 257.2665,270.93316 257,271.14791 257,271.7361 c 0,1.53713 -10.81107,8.4987 -12.02912,7.74591 -0.56124,-0.34687 -0.89678,-0.0865 -0.74566,0.57871 0.69157,3.04382 -26.77094,14.57852 -44.14872,18.54316 -7.78771,1.77673 -39.41477,2.7127 -46.0765,1.36359 z m 43.30391,-4.58362 c 10.4946,-1.98952 25.57363,-6.80693 32.98583,-10.53822 3.18436,-1.603 6.29139,-2.60451 6.90451,-2.22558 0.66283,0.40965 0.8351,0.23646 0.42494,-0.4272 -0.54443,-0.88091 5.56862,-4.97741 8.34281,-5.59071 0.25409,-0.0562 1.80367,-1.32757 3.44349,-2.82532 1.63982,-1.49774 3.12577,-2.5789 3.3021,-2.40256 0.89554,0.89553 21.1773,-18.59512 25.13813,-24.1576 l 2.1566,-3.02866 -5.25116,-0.63569 c -2.88814,-0.34963 -6.8471,-0.86601 -8.79769,-1.14752 -3.2502,-0.46907 -3.66799,-0.2358 -5,2.79169 -1.98659,4.51522 -5.99381,5.6784 -19.7991,5.74708 -9.40766,0.0468 -11.79903,0.37576 -14,1.92586 -4.74257,3.34009 -11.19595,6.22292 -12.34317,5.51389 -0.64233,-0.39697 -0.84319,-0.24408 -0.47084,0.35839 0.84891,1.37357 -16.45133,6.87077 -26.34036,8.36973 -4.43805,0.67271 -12.80739,0.90974 -20.5,0.58059 -16.38503,-0.70108 -27.90616,-3.69183 -43,-11.16229 l -11,-5.44428 -11.5,-0.36368 c -12.718897,-0.40224 -16.265228,-1.53366 -18.010006,-5.74593 -1.245024,-3.00575 -0.113265,-2.89109 -14.17603,-1.43618 -5.404892,0.55918 -5.60267,0.67601 -4,2.36278 0.92732,0.97598 4.351354,4.81814 7.608966,8.53813 3.257611,3.71999 10.007611,9.9287 15,13.79712 4.992388,3.86842 8.953421,7.45593 8.802293,7.97223 -0.151127,0.51631 0.127168,0.69032 0.618434,0.38671 0.491266,-0.30362 4.294843,1.38647 8.452403,3.75575 14.42569,8.22084 33.86524,14.51228 51.20394,16.57173 10.16049,1.20683 29.19942,0.4701 39.80391,-1.54026 z m -28.20218,-3.29982 c -1.08582,-0.6875 -1.24719,-2.36004 -0.72215,-7.48468 L 169.0557,278 h -2.98013 c -2.95129,0 -2.98302,0.0595 -3.27785,6.14602 -0.21665,4.47233 -0.76122,6.43703 -1.99976,7.21463 -0.93612,0.58774 -2.06112,0.68542 -2.5,0.21708 -0.43888,-0.46835 -0.25981,-1.04431 0.39792,-1.27993 0.67401,-0.24144 1.49504,-3.46433 1.8814,-7.38528 0.37703,-3.8263 1.0929,-7.20868 1.59082,-7.51641 0.49791,-0.30773 2.68878,-0.25819 4.8686,0.11009 3.71254,0.62723 3.9633,0.88548 3.9633,4.0817 0,2.83672 0.37942,3.43207 2.25,3.53052 1.2375,0.0651 2.64382,0.0464 3.12516,-0.0417 1.68414,-0.30817 4.62484,3.25451 4.62484,5.60304 0,1.62365 -0.80761,2.67682 -2.5651,3.34501 -3.17487,1.20708 -7.47722,1.23441 -9.33317,0.0593 z m 8.80949,-2.91815 C 179.2148,286.73012 177.50738,285 173.8,285 c -2.39696,0 -2.8,0.40121 -2.8,2.78729 0,2.37074 0.44207,2.82098 2.95803,3.01269 2.01936,0.15387 3.27382,-0.36468 3.95319,-1.6341 z m 13.30175,-5.12948 c -1.71602,-10.00711 -1.85133,-9.6447 4.03703,-10.81324 5.62924,-1.11711 6.35187,-1.00602 5.23292,0.80448 -0.39455,0.63838 -1.78961,0.95573 -3.10014,0.7052 C 196.07225,274.48232 195,274.66494 195,275.13867 195,275.6124 194.27686,276 193.39301,276 c -1.05452,0 -1.39831,0.5438 -1,1.58179 0.33385,0.86998 0.60699,1.98086 0.60699,2.46861 0,0.48776 0.5625,0.71354 1.25,0.50174 4.52568,-1.39425 6.91679,-1.55252 6.54366,-0.43313 -0.22114,0.66343 -1.20032,1.3234 -2.17596,1.46659 -3.59095,0.52704 -4.6177,1.4113 -4.6177,3.97685 0,2.57529 0.0951,2.61215 5,1.93755 5.88057,-0.80878 6.98351,0.91797 1.25,1.95698 -2.0625,0.37377 -4.66666,0.89858 -5.78703,1.16625 -1.82542,0.43612 -2.16303,-0.24812 -3.25,-6.58683 z m -45.77502,3.57238 c -0.75999,-3.02804 -6.3128,-4.50042 -8.04395,-2.13293 -1.0481,1.43336 -3.394,2.13296 -3.394,1.01216 C 134,284.99276 143.48748,272 144.57933,272 c 1.63086,0 2.11649,1.76943 2.95042,10.75 0.4596,4.94942 0.32975,7.25 -0.40921,7.25 -0.59534,0 -1.35251,-1.07605 -1.68259,-2.39122 z M 145,280.05902 c 0,-4.11622 -1.63218,-4.67099 -3.44256,-1.1701 -1.17216,2.26671 -1.24026,3.07056 -0.29259,3.45375 2.79587,1.13052 3.73515,0.55624 3.73515,-2.28365 z m 69.10274,2.75812 c -0.49435,-1.27443 -1.83413,-4.66947 -2.97728,-7.54453 l -2.07846,-5.2274 2.11589,-1.13239 c 4.45097,-2.38208 7.77268,-2.83439 9.33585,-1.27122 1.67386,1.67386 1.96655,3.9528 0.61495,4.78814 -0.48747,0.30127 -1.12034,-0.34717 -1.40638,-1.44099 -0.59251,-2.26574 -3.48246,-2.60487 -6.07061,-0.71237 -2.4937,1.82344 -1.10942,5.13239 1.75121,4.18603 3.09924,-1.02529 7.62187,-0.69918 9.26972,0.66841 3.23951,2.68855 -0.36262,7.22664 -7.40685,9.33141 -1.76317,0.52682 -2.44346,0.17131 -3.14804,-1.64509 z m 6.4015,-1.81875 c 3.20459,-1.21839 3.19643,-5.32627 -0.0115,-5.78613 -3.13604,-0.44955 -5.86369,2.04361 -5.0479,4.61394 0.77915,2.4549 1.34238,2.5854 5.0594,1.17219 z m -104.74243,-1.56991 c -0.54269,-0.54269 4.70063,-13.14856 6.08509,-14.62964 0.36047,-0.38563 2.56739,0.15487 4.90426,1.20111 3.34324,1.49682 4.24884,2.43031 4.24884,4.37973 0,4.65556 -4.57591,6.98802 -9.03138,4.60353 -1.58816,-0.84996 -2.15586,-0.52181 -3.45994,2 -1.64739,3.18572 -1.83734,3.3548 -2.74687,2.44527 z m 12.04887,-8.21967 c 0.34132,-2.27789 -2.76155,-4.54863 -5.0274,-3.67914 -1.84647,0.70856 -2.01467,4.44431 -0.23092,5.1288 0.78988,0.3031 1.19093,0.94788 0.89121,1.43284 -0.31136,0.50378 0.44124,0.51937 1.75574,0.0364 1.26538,-0.46495 2.4405,-1.77844 2.61137,-2.91887 z m -24.55315,-2.85083 c 0.15669,-2.99973 -0.19977,-4.79816 -1.00753,-5.08334 -0.6875,-0.24272 -1.26431,0.15869 -1.2818,0.89203 -0.0507,2.12731 -2.730855,5.09805 -3.930452,4.35666 -0.991525,-0.6128 4.811382,-9.90676 7.264662,-11.63513 0.47763,-0.3365 0.82998,-0.899 0.783,-1.25 -0.23088,-1.72519 0.006,-1.94709 1.00769,-0.9451 0.7908,0.7908 0.61506,1.82268 -0.63546,3.73121 -2.26449,3.45605 -1.08224,4.47071 2.68796,2.30691 C 111.5144,258.7978 114,258.48734 114,260 c 0,0.55 -0.7875,1.01001 -1.75,1.02224 -3.48954,0.0443 -6.15372,3.2595 -6.40347,7.72776 -0.15054,2.6933 -0.7126,4.25 -1.5345,4.25 -0.91118,0 -1.22484,-1.3808 -1.0545,-4.64202 z M 233.94292,270.75 c -2.85832,-3.01231 -4.07456,-6.37731 -3.34936,-9.26676 0.68336,-2.72272 4.38646,-5.48324 7.35548,-5.48324 2.96104,0 7.96258,5.01224 8.66518,8.68371 1.27902,6.68354 -7.91089,11.08314 -12.6713,6.06629 z m 9.89564,-3.15228 c 0.59341,-3.07774 -0.79533,-6.52329 -3.28738,-8.15614 -2.02484,-1.32673 -2.79306,-1.37544 -4.73412,-0.3002 -1.27438,0.70594 -2.62284,1.19849 -2.99658,1.09457 -1.12619,-0.31317 0.14004,4.77417 1.83039,7.35397 0.86853,1.32554 2.00395,2.41008 2.52316,2.41008 0.5192,0 0.65587,0.46622 0.3037,1.03604 -0.35524,0.57478 0.84282,0.43089 2.69098,-0.32319 1.83221,-0.74757 3.48364,-2.14938 3.66985,-3.11513 z m -46.05452,-6.1447 C 206.56177,259.22637 222,252.91251 222,251.54929 c 0,-0.30211 -22.6125,-0.52765 -50.25,-0.50119 l -50.25,0.0481 5.69726,2.94126 c 20.53802,10.60295 47.04434,13.38759 70.58678,7.41556 z m 58.56291,-14.32546 c 0.90918,-0.75485 1.71691,-0.97985 1.79496,-0.5 0.61819,3.80072 1.30089,-9.81097 1.05965,-21.12756 l -0.29844,-14 -85.59777,0.2511 c -51.92682,0.15233 -86.040204,-0.11609 -86.722522,-0.68236 -0.826709,-0.68611 -1.075498,3.58763 -0.938872,16.1281 0.212134,19.47126 0.330842,19.77765 8.094511,20.89227 2.618843,0.37599 39.905163,0.62225 82.858483,0.54725 64.57452,-0.11275 78.38317,-0.374 79.75,-1.5088 z m -119.87698,-2.17615 c -0.62021,-1.00352 8.04708,-5.29585 11.03003,-5.46243 1.1,-0.0614 2.45,0.1739 3,0.52294 1.68047,1.06646 5.79899,0.56403 6.24562,-0.76192 0.23158,-0.6875 -0.093,-1.25 -0.7213,-1.25 -0.6283,0 -0.82127,0.51953 -0.42883,1.15451 0.44563,0.72104 0.27393,0.88282 -0.45729,0.4309 C 153.72977,238.71496 154.59101,237 156.43657,237 c 0.7252,0 1.87463,0.67005 2.55429,1.48899 0.67967,0.81894 1.60367,1.2616 2.05335,0.98369 0.44968,-0.27792 1.08987,-0.0647 1.42266,0.47372 0.36308,0.58747 1.95217,0.2224 3.97332,-0.91281 1.85253,-1.0405 3.57222,-1.68785 3.82153,-1.43854 0.2493,0.2493 1.03153,-0.24347 1.73828,-1.09505 2.07165,-2.49618 0.35535,-2.90722 -3.25201,-0.77882 l -3.33741,1.96912 -0.20414,-2.46664 c -0.15503,-1.8732 0.097,-2.21672 1.04754,-1.42784 0.88167,0.73172 1.81205,0.62907 3.14724,-0.34725 1.65608,-1.21095 1.71889,-1.61109 0.49716,-3.16731 -1.22072,-1.55496 -1.20782,-1.64149 0.10162,-0.68111 1.63828,1.20156 6.85622,1.3194 8.58333,0.19384 0.59963,-0.39078 1.08334,-0.0756 1.08334,0.70601 0,0.77661 -0.375,1.18026 -0.83334,0.89699 -0.45833,-0.28326 -0.83333,-0.0866 -0.83333,0.437 0,0.52362 0.7875,1.27823 1.75,1.67692 2.69479,1.11623 6.32143,1.41369 5.73862,0.47067 -0.61039,-0.98762 1.35995,-2.43731 3.51138,-2.58352 4.09625,-0.27838 4.66667,-0.50501 4.66667,-1.85407 0,-0.80372 -0.48534,-1.14658 -1.08334,-0.76531 -0.59583,0.37988 -1.87083,0.75384 -2.83333,0.83101 -0.9625,0.0772 -1.8625,0.23099 -2,0.34182 -0.1375,0.11083 -1.06261,0.35595 -2.05581,0.54471 -1.47134,0.27963 -1.58386,0.0758 -0.6075,-1.10068 0.65907,-0.79413 1.43028,-1.2119 1.7138,-0.92838 0.28352,0.28352 1.0069,0.11308 1.6075,-0.37876 1.52942,-1.25244 5.84288,-1.68176 7.36679,-0.73322 0.80294,0.49979 1.17307,0.32528 1,-0.47146 -0.15113,-0.69572 0.6109,-1.45607 1.69339,-1.68967 1.62792,-0.3513 1.75861,-0.17223 0.75598,1.03586 -1.01796,1.22657 -0.77252,1.42117 1.53184,1.21453 1.5092,-0.13533 3.33307,-0.29069 4.05303,-0.34525 0.71996,-0.0546 1.08859,-0.45584 0.81918,-0.89175 -0.46034,-0.74486 1.81237,-1.16239 8.8718,-1.62989 4.26691,-0.28256 7.62726,-1.56262 6.9555,-2.64955 -0.52767,-0.85379 -0.11851,-1.02537 3.20438,-1.34377 0.63793,-0.0611 1.98793,-0.78008 3,-1.59768 3.18994,-2.577 6.38633,-4.07603 7.3808,-3.46141 0.52762,0.32609 0.95932,0.20361 0.95932,-0.27218 0,-1.52272 10.9697,-0.71183 12.61398,0.93244 1.36295,1.36296 1.20121,1.79232 -1.54589,4.10385 -3.21281,2.70341 -3.798,4.58084 -1.99105,6.38779 0.7694,0.7694 0.18166,1.71462 -2.05757,3.3091 -1.72404,1.22762 -3.40871,1.95795 -3.74371,1.62295 -0.335,-0.335 -0.25399,-0.60909 0.18002,-0.60909 0.43401,0 0.23302,-0.67005 -0.44664,-1.48899 -0.67967,-0.81894 -1.60367,-1.2616 -2.05335,-0.98369 -0.44968,0.27792 -1.10025,0.048 -1.44571,-0.51101 -0.34546,-0.55897 0.0734,-1.07256 0.9309,-1.14131 1.52549,-0.12231 2.80423,-0.38002 4.30902,-0.86842 0.4125,-0.13388 1.18737,-0.15684 1.72194,-0.051 0.53456,0.10582 0.12732,-0.74089 -0.90499,-1.88158 -2.04214,-2.25654 -5.19088,-2.91605 -3.93401,-0.82398 0.583,0.9704 0.42781,0.9889 -0.69382,0.0827 -1.11453,-0.90048 -1.88786,-0.84333 -3.38308,0.25 -1.06607,0.77953 -1.44211,1.41732 -0.83565,1.41732 0.60645,0 1.00176,0.68737 0.87845,1.52749 -0.1233,0.84013 -0.64598,1.47013 -1.16151,1.4 -0.51553,-0.0701 -0.85667,-0.43698 -0.75808,-0.81524 0.41092,-1.57661 -4.54415,-0.91901 -6.10964,0.81083 -2.23355,2.46805 -0.87825,3.25984 5.7268,3.34571 l 5.16106,0.0671 -3.47874,1.20138 c -2.57612,0.88965 -3.85287,0.91094 -4.92069,0.0821 -1.15022,-0.89285 -1.27157,-0.81583 -0.59982,0.38069 0.46317,0.825 -0.68795,0.0825 -2.55804,-1.64992 -3.34702,-3.10067 -4.7745,-3.36874 -11.12124,-2.08847 C 211.26688,229.76834 210.36074,231 212.5,231 c 1.00833,0 1.56348,0.26985 1.23367,0.59966 -0.32982,0.32982 -2.28714,0.0428 -4.3496,-0.63792 -4.88032,-1.61065 -9.26797,-1.95861 -9.98887,-0.79216 -0.33897,0.54846 -1.11352,0.47916 -1.8952,-0.16958 -0.91431,-0.75881 -1.52177,-0.77379 -1.96999,-0.0486 -0.63218,1.0229 0.25975,1.2311 5.55332,1.29631 1.42084,0.0175 2.58334,0.58248 2.58334,1.2555 0,0.72212 -1.11642,1.12867 -2.72384,0.99189 -2.36198,-0.20099 -3.48702,0.47776 -5.96899,3.60117 -0.26061,0.32796 0.14837,1.34601 0.90884,2.26233 1.1335,1.36578 1.66368,1.43853 2.94196,0.40369 1.30306,-1.05491 1.41403,-1.01585 0.67536,0.23767 -0.69902,1.18624 -0.58229,1.27799 0.55804,0.43865 1.52,-1.11879 2.08089,-1.11291 5.68071,0.0596 1.30436,0.42484 1.95465,1.20343 1.55804,1.86548 -0.40803,0.68113 -0.0561,0.63065 0.87857,-0.12602 1.26727,-1.02593 1.78348,-0.99219 2.75645,0.18016 0.65844,0.79337 2.1082,1.26705 3.2217,1.05261 1.57095,-0.30254 1.78177,-0.0974 0.94099,0.9157 -1.28884,1.55295 -4.46939,1.4098 -8.5945,-0.38684 -4.38682,-1.91062 -5.32558,-2.06677 -12.75575,-2.12172 -3.81166,-0.0282 -6.50962,-0.4482 -6.19098,-0.96377 C 187.86389,240.41121 187.38992,240 186.5,240 c -0.88992,0 -1.35107,0.43196 -1.02477,0.95992 0.63406,1.02593 -4.36216,-0.50106 -8.26571,-2.52625 -2.51253,-1.30351 -6.55226,-0.79725 -5.62394,0.7048 0.30969,0.50109 0.19213,0.84664 -0.26125,0.76789 -0.45338,-0.0788 -1.04933,-0.0555 -1.32433,0.0517 -2.46315,0.9603 -5.89107,1.3315 -14.24507,1.5426 -5.35979,0.13543 -10.30979,0.68332 -11,1.21754 -2.87799,2.22753 -7.51584,3.47765 -8.28496,2.23318 z m 58.18284,-5.78256 c -0.91145,-1.00713 -1.42843,-2.05989 -1.14886,-2.33947 0.27957,-0.27957 -0.32993,-1.2669 -1.35444,-2.19407 -1.66265,-1.50468 -1.99872,-1.52193 -3.12857,-0.16054 C 188.15567,235.51735 188.1103,236 188.87756,236 189.4949,236 190,235.475 190,234.83333 c 0,-1.29612 1.42754,-0.19801 1.625,1.25 0.0687,0.50417 0.2375,1.14167 0.375,1.41667 0.1375,0.275 0.3625,0.95 0.5,1.5 0.1375,0.55 0.30625,1.225 0.375,1.5 0.0687,0.275 0.86974,0.5 1.77999,0.5 1.53919,0 1.53903,-0.12812 -0.002,-1.83115 z M 183.427,237.52147 c -1.05985,-0.80182 -2.51606,-1.47217 -3.23602,-1.48967 -0.71996,-0.0175 -1.07725,-0.4068 -0.79399,-0.86513 0.28327,-0.45834 -0.0277,-0.85474 -0.69098,-0.88089 -0.6633,-0.0262 -2.10601,-0.39558 -3.20601,-0.82094 -1.58179,-0.61166 -1.39296,-0.12124 0.90302,2.34533 1.59667,1.71529 3.17167,2.96603 3.5,2.7794 0.32834,-0.18662 1.49698,-0.002 2.59698,0.41004 2.76428,1.03569 3.24229,0.27349 0.927,-1.47814 z M 177.87244,236.25 c -1.24387,-1.58606 -1.2085,-1.62143 0.37756,-0.37756 0.9625,0.75485 1.75,1.54235 1.75,1.75 0,0.82304 -0.82119,0.29331 -2.12756,-1.37244 z m 18.95031,-2.53643 c 0.81721,-0.98468 0.48673,-1.3345 -1.40894,-1.49139 -2.093,-0.17323 -2.27812,0.0201 -1.1952,1.24839 1.58064,1.79277 1.33683,1.77002 2.60414,0.243 z m 14.5016,-6.03267 c -0.47958,-0.7996 -0.2048,-0.77331 0.85101,0.0814 1.26922,1.02751 1.78742,0.98745 2.78568,-0.21538 1.05475,-1.27091 0.5485,-1.46296 -3.61732,-1.3723 -3.4668,0.0754 -4.27518,0.32989 -2.84372,0.89509 1.1,0.43433 1.63594,0.82132 1.19098,0.85997 -0.44496,0.0387 -0.52636,0.52763 -0.1809,1.0866 0.34546,0.55897 1.05436,0.75288 1.57533,0.4309 0.52097,-0.32197 0.62849,-1.11681 0.23894,-1.76631 z M 243,221 c 0,-0.55 -0.47656,-1 -1.05902,-1 -0.58246,0 -0.7809,0.45 -0.44098,1 0.33992,0.55 0.81648,1 1.05902,1 0.24254,0 0.44098,-0.45 0.44098,-1 z m -0.86154,-2.69401 c 2.69048,-2.69049 1.40584,-3.29946 -4.05207,-1.92083 -2.86986,0.7249 -4.49864,1.71552 -4.65673,2.83221 -0.34859,2.46247 5.99926,1.79816 8.7088,-0.91138 z m -48.32596,27.0109 c 0.72187,-0.28887 1.58437,-0.25335 1.91667,0.0789 0.33229,0.33229 -0.25834,0.56864 -1.3125,0.52522 -1.16495,-0.048 -1.4019,-0.28494 -0.60417,-0.60416 z M 162,238.5 c -0.67464,-0.81289 -1.6288,-1.22941 -2.12037,-0.92561 -0.49157,0.30381 -1.15386,-0.12545 -1.47177,-0.95391 -0.44469,-1.15883 -1.15008,-1.28879 -3.05804,-0.56338 -3.1212,1.18668 -3.34982,1.17875 -3.34982,-0.11612 0,-0.58246 0.45,-0.7809 1,-0.44098 0.55,0.33992 1,-0.0835 1,-0.94098 0,-0.85746 0.47656,-1.55902 1.05902,-1.55902 0.58246,0 0.73709,-0.52089 0.34363,-1.15752 -0.49011,-0.79301 -0.0366,-0.98003 1.43998,-0.59388 1.18546,0.31 2.41192,0.14855 2.72547,-0.35879 0.83799,-1.35589 2.58398,0.0399 1.78789,1.42929 -0.37215,0.64949 -0.29147,0.83038 0.1793,0.40196 1.27166,-1.15728 1.46592,-3.83984 0.22242,-3.07131 -0.692,0.42767 -0.76937,0.16588 -0.22026,-0.74524 0.70622,-1.1718 0.58088,-1.18936 -0.75646,-0.10595 -1.17174,0.94924 -1.79171,0.99311 -2.30469,0.16309 -0.46239,-0.74815 -1.81871,-0.0529 -3.9763,2.03835 -2.05181,1.98869 -3.52538,2.76796 -3.94629,2.08691 -0.66294,-1.07267 -0.52117,-1.21598 1.44629,-1.46191 0.55,-0.0687 1,-0.4625 1,-0.875 0,-0.4125 0,-1.065 0,-1.45 0,-0.385 -0.50714,-0.19286 -1.12697,0.42697 -0.68226,0.68226 -1.96474,0.81482 -3.25,0.33593 -1.8414,-0.6861 -3.51613,-0.62554 -8.12303,0.29379 -0.55,0.10975 -1.675,0.59654 -2.5,1.08176 -0.825,0.48521 -1.1664,0.51396 -0.75868,0.0639 0.94949,-1.04809 -1.17219,-3.66309 -2.37094,-2.92222 -0.49665,0.30695 -0.57082,1.08949 -0.16481,1.73899 1.36695,2.18674 1.10215,3.49792 -0.80727,3.99724 -1.05249,0.27524 -1.90512,-0.0188 -1.91361,-0.65996 -0.01,-0.73394 -0.28371,-0.79107 -0.75,-0.15638 -0.90059,1.22581 -5.40327,1.58178 -4.65302,0.36786 0.295,-0.47732 1.18481,-0.86786 1.97735,-0.86786 0.79254,0 1.32848,-0.52571 1.19098,-1.16825 -0.1375,-0.64253 0.875,-1.79799 2.25,-2.56769 l 2.5,-1.39944 -3,0.42626 c -1.65,0.23444 -3.9,0.7866 -5,1.22702 -1.1,0.44042 -1.66931,0.43587 -1.26513,-0.0101 1.05293,-1.16183 -3.92472,-3.5078 -7.4428,-3.5078 -2.13831,0 -3.12695,-0.56456 -3.50232,-2 -0.58016,-2.21852 -2.2957,-2.59405 -4.01161,-0.87814 -1.61339,1.61339 -0.42727,3.86623 2.07885,3.94843 2.08423,0.0684 2.08815,0.0939 0.14301,0.92971 -1.1,0.47269 -1.6074,0.89106 -1.12756,0.92971 0.47985,0.0387 0.30283,0.75664 -0.39338,1.59552 -1.13441,1.36689 -1.44104,1.36666 -2.95359,-0.002 -0.92828,-0.84008 -1.89238,-1.32281 -2.14245,-1.07274 -0.25007,0.25007 -0.54416,-0.62665 -0.65354,-1.94826 -0.10938,-1.32161 0.26609,-2.6903 0.83438,-3.04152 1.44252,-0.89152 -0.9454,-3.63562 -2.42717,-2.78919 -0.62518,0.35712 -0.79821,0.27618 -0.38451,-0.17986 0.4137,-0.45605 0.12604,-1.5407 -0.63924,-2.41033 -0.98154,-1.11538 -1.12652,-2.27758 -0.49218,-3.94529 0.75082,-1.97394 1.14916,-2.15674 2.41341,-1.1075 0.83279,0.69115 1.29972,1.47109 1.03762,1.73319 -0.26211,0.2621 0.18116,1.13425 0.98502,1.93812 0.80386,0.80386 1.23739,1.8243 0.96339,2.26764 -0.274,0.44334 0.25825,1.41956 1.18277,2.16938 1.1561,0.93764 1.44647,0.97302 0.92997,0.11331 -0.7428,-1.2364 0.79467,-1.68364 4.52847,-1.3173 2.38654,0.23414 3.43711,-2.01825 1.45796,-3.12584 -0.91379,-0.51138 -1.36095,-1.46462 -0.9937,-2.11832 0.48244,-0.85872 0.34305,-0.89068 -0.50234,-0.11516 -1.27971,1.17394 -7.39096,0.66868 -6.63849,-0.54886 0.86709,-1.40297 9.61845,-0.24102 11.58434,1.53809 1.06195,0.96105 1.93082,1.45703 1.93082,1.10217 0,-0.35487 0.7875,0.0291 1.75,0.85319 0.9625,0.82412 2.05125,1.38222 2.41944,1.24021 0.36819,-0.142 1.86694,0.86682 3.33056,2.24182 1.46362,1.375 2.84987,2.3875 3.08056,2.25 0.23069,-0.1375 0.53194,-0.20536 0.66944,-0.15081 0.1375,0.0546 1.49332,0.21038 3.01293,0.34626 3.9976,0.35748 4.64807,1.55455 0.84472,1.55455 -1.93033,0 -2.97345,0.40813 -2.59757,1.01631 0.34546,0.55897 0.99603,0.78893 1.44571,0.51101 0.44968,-0.27791 1.38311,0.1761 2.07429,1.00892 1.11694,1.34584 1.46577,1.325 3.13694,-0.18739 1.44746,-1.30993 1.58709,-1.88766 0.60661,-2.50991 -0.8612,-0.54656 -0.52591,-0.81327 1.03539,-0.82363 1.26996,-0.008 2.06252,0.38353 1.76124,0.871 -0.8691,1.40624 3.24392,2.04252 4.3771,0.67712 0.72753,-0.87662 0.60705,-1.2301 -0.41925,-1.2301 -0.79207,0 -1.1654,0.44453 -0.82961,0.98785 0.34453,0.55746 0.10043,0.67258 -0.5603,0.26423 -1.63621,-1.01123 -0.49374,-2.4769 1.61577,-2.07285 0.96032,0.18393 1.85853,0.4251 1.99603,0.53593 0.1375,0.11083 1.2625,0.27821 2.5,0.37196 1.3981,0.10592 2.1283,0.72118 1.92857,1.625 -0.2473,1.1191 -0.0451,1.18311 0.87698,0.27758 0.80471,-0.79033 1.97796,-0.88059 3.57142,-0.27475 1.30517,0.49622 2.37303,0.61861 2.37303,0.27198 0,-0.34663 0.89841,0.18282 1.99647,1.17654 1.38065,1.24948 1.69178,2.17391 1.00867,2.997 -0.54328,0.65462 -0.79405,1.38395 -0.55727,1.62074 0.90826,0.90826 1.37426,5.87735 0.59627,6.35818 C 163.5945,239.75061 162.67464,239.31289 162,238.5 Z m -27.46241,-7.29575 c -1.07195,-1.07195 -3.5155,-1.04901 -4.18813,0.0393 -0.37337,0.60412 -0.18851,0.77498 0.42693,0.39462 0.59698,-0.36895 1.3726,-0.20614 1.72361,0.3618 0.35101,0.56794 1.08704,0.75522 1.63563,0.41618 0.54859,-0.33905 0.72947,-0.88441 0.40196,-1.21193 z m 78.96241,2.60816 -3,-0.72403 3.29403,0.28908 c 1.81171,0.15899 3.48847,-0.0255 3.72613,-0.41008 0.51371,-0.83121 5.48012,-0.0162 5.4792,0.8992 -8.6e-4,0.86507 -5.82822,0.83185 -9.49936,-0.0542 z m -95.61705,-1.14276 c -1.32375,-0.97883 -0.51525,-1.22883 4.45749,-1.37834 5.49798,-0.1653 5.84129,-0.0609 3.61705,1.10013 -1.35162,0.70552 -2.9407,0.91677 -3.53128,0.46945 -0.59059,-0.44732 -1.49059,-0.4043 -2,0.0956 -0.55688,0.54647 -1.57101,0.4321 -2.54326,-0.28682 z m 26.47817,0.10563 c -0.26354,-0.4264 -0.3401,-0.81228 -0.17014,-0.85751 3.5157,-0.93554 5.47569,-0.74034 5.47569,0.54534 0,1.54651 -4.3833,1.80441 -5.30555,0.31217 z m 61.09013,-0.85416 c -0.25343,-0.41005 0.20334,-0.64808 1.01504,-0.52895 2.0896,0.30669 2.84115,1.2745 0.98972,1.2745 -0.84919,0 -1.75134,-0.3355 -2.00476,-0.74555 z m 10.68187,-1.57622 c 1.08877,-1.31793 2.55093,-1.2334 5.24081,0.30298 1.55054,0.88562 1.17768,1.0515 -2.16057,0.96123 -2.92673,-0.0791 -3.77248,-0.42627 -3.08024,-1.26421 z m -100.69114,-2.43878 c -0.30801,-0.49837 0.59154,-0.90612 1.999,-0.90612 3.06405,0 3.31157,0.56994 0.56002,1.28949 -1.09946,0.28751 -2.25101,0.115 -2.55902,-0.38337 z m 86.17111,-3.0891 c 0.28881,-0.4673 0.94401,-0.59075 1.45601,-0.27431 1.30838,0.80862 1.16106,1.12396 -0.52511,1.12396 -0.80081,0 -1.21971,-0.38234 -0.9309,-0.84965 z M 234.5,224 c 0.33992,-0.55 0.81648,-1 1.05902,-1 0.24254,0 0.44098,0.45 0.44098,1 0,0.55 -0.47656,1 -1.05902,1 -0.58246,0 -0.7809,-0.45 -0.44098,-1 z m -156.274161,16.38787 4.725839,-0.64253 0.274161,-16.06011 0.274161,-16.06011 3,-0.71444 c 1.65,-0.39295 4.700005,-1.00633 6.77779,-1.36309 5.926134,-1.01751 3.456615,-2.3125 -2.792686,-1.46445 -17.975581,2.43934 -57.796057,3.07921 -66.457989,1.0679 -2.460087,-0.57123 -4.64278,-0.86871 -4.850429,-0.66106 -1.174137,1.17414 10.653333,10.17121 18.573314,14.12859 5.0875,2.54208 9.25,4.9394 9.25,5.32738 0,1.38841 -4.665078,5.05718 -5.484512,4.3132 -0.459876,-0.41753 -0.540736,-0.24244 -0.179687,0.38909 0.752823,1.31681 -7.158258,6.72247 -12.407614,8.47814 -5.446655,1.82167 -5.521576,2.66732 -0.298824,3.37291 2.678851,0.36191 5.320637,0.84506 5.870637,1.07367 1.407071,0.58485 38.002955,-0.407 43.725839,-1.18509 z M 53.39839,232.5958 c -0.296363,-0.7723 -0.394739,-5.24558 -0.218615,-9.94062 0.317963,-8.47613 0.306098,-8.52377 -1.679775,-6.74457 -3.400801,3.04688 -4.5,3.36586 -4.5,1.30588 0,-1.14073 1.37465,-2.64185 3.435735,-3.75181 1.889654,-1.01765 3.352154,-2.29929 3.25,-2.84808 C 53.583581,210.0678 54.2875,209.44656 55.25,209.23607 56.84417,208.88743 57,209.97295 57,221.42668 57,232.05082 56.762597,234 55.468615,234 c -0.842261,0 -1.773863,-0.63189 -2.070225,-1.4042 z m 15.001314,0.637 c -0.605163,-0.40304 -1.633495,-1.7453 -2.285184,-2.9828 -1.433941,-2.72293 0.344305,-3.12656 3.44435,-0.7818 2.973824,2.24928 4.410158,1.83221 5.917241,-1.7182 1.413056,-3.3289 0.3009,-6.62526 -1.339686,-3.97074 -1.035069,1.67478 -4.550961,1.06055 -7.091878,-1.23895 C 65.672632,221.29875 65,219.44746 65,216.91311 c 0,-3.02757 0.576237,-4.18724 2.90437,-5.84502 5.544403,-3.94796 10.517869,-1.58658 12.172816,5.7796 1.105579,4.92094 0.266455,11.48273 -1.341344,10.48905 -0.630701,-0.38979 -0.743899,-0.15879 -0.285582,0.58278 1.868416,3.02316 -6.693197,7.54931 -10.050556,5.31328 z m 6.550109,-12.67233 c 2.964261,-3.57171 -0.970465,-10.44807 -4.36599,-7.63004 -1.567961,1.3013 -2.202763,7.1173 -0.917156,8.4029 1.150148,1.15015 4.037771,0.72773 5.283146,-0.77286 z m 243.290717,19.78027 c 2.60877,-0.80518 2.36196,-1.02947 -5.13366,-4.66515 -8.3225,-4.03675 -14.52574,-9.13111 -13.43762,-11.03552 0.3651,-0.639 0.25765,-0.78016 -0.24449,-0.32117 -0.49275,0.4504 -0.96686,2.22986 -1.05359,3.95436 -0.31945,6.35179 -8.22294,8.96588 -12.91662,4.27219 -2.9866,-2.98659 -3.13529,-6.19194 -0.42124,-9.08091 1.8075,-1.924 1.86303,-2.30568 0.5,-3.43689 -2.0175,-1.67438 -1.95473,-5.90451 0.12168,-8.19891 4.03157,-4.45484 13.37378,-0.0638 11.94826,5.6159 -0.35274,1.40545 -1.08278,2.55536 -1.6223,2.55536 -1.18996,0 -1.2352,1.05083 -0.12086,2.80786 0.65701,1.03594 1.58943,0.85947 4.48469,-0.84878 2.01037,-1.18615 3.66211,-1.77468 3.67053,-1.30786 0.008,0.46683 0.34592,0.38777 0.75,-0.17569 0.40408,-0.56346 2.89939,-2.13846 5.54514,-3.5 2.64575,-1.36154 7.14575,-4.60634 10,-7.21066 l 5.18955,-4.73513 -11,0.55747 c -6.05,0.30661 -12.32951,0.72516 -13.95446,0.93011 -1.62495,0.20496 -9.94995,-0.0348 -18.5,-0.53282 C 273.49549,205.4865 261.775,204.84699 256,204.56338 l -10.5,-0.51565 7.33001,1.29657 c 4.0315,0.71311 7.70721,1.9069 8.16824,2.65287 0.46103,0.74597 0.88788,8.11462 0.94855,16.37479 0.0607,8.26016 0.20996,15.1177 0.33175,15.23898 0.1218,0.12127 4.49645,0.67336 9.72145,1.22686 10.69869,1.13334 42.04998,0.79633 46.24053,-0.49706 z m -51.97387,-8.00408 c -2.44909,-2.46761 -2.55725,-2.82915 -0.94226,-3.14977 1.00343,-0.19921 2.61386,0.35225 3.57874,1.22546 5.00088,4.52572 9.9551,-2.45346 5.39498,-7.60009 -1.14979,-1.29767 -2.06547,-1.47101 -3.96187,-0.75 -4.74159,1.80275 -5.62108,1.29936 -4.91334,-2.81226 1.72216,-10.00495 1.09726,-9.25 7.65655,-9.25 5.25387,0 5.92054,0.2252 5.92054,2 0,1.7037 -0.66667,2 -4.5,2 -2.475,0 -4.5,0.4132 -4.5,0.91821 0,0.50502 -0.2881,1.669 -0.64023,2.58662 -0.477,1.24306 -0.15833,1.58895 1.25,1.35674 1.03963,-0.17141 2.45273,0.0412 3.14023,0.47241 0.6875,0.43123 1.25,0.51666 1.25,0.18985 0,-0.32681 0.86342,-0.13211 1.91872,0.43267 1.05529,0.56478 2.22258,2.41033 2.59396,4.10123 0.70219,3.19704 -1.02802,8.94227 -2.69302,8.94227 -0.51573,0 -0.61399,-0.5625 -0.21835,-1.25 0.41793,-0.72624 0.33791,-0.90083 -0.19098,-0.41667 -0.50068,0.45834 -0.91033,1.35834 -0.91033,2 0,0.64167 -1.455,1.30712 -3.23334,1.47879 -2.46137,0.23759 -3.89388,-0.35343 -6,-2.47546 z m 28.22101,-3.29783 c 1.35898,-4.28175 -3.27701,-7.84949 -6.28767,-4.83883 -2.95663,2.95663 0.36233,9.63979 3.85814,7.76888 0.99353,-0.53172 2.08682,-1.85024 2.42953,-2.93005 z M 293.5,216.5 c 0,-2.33835 -0.49,-3.06966 -2.22172,-3.31584 -1.22194,-0.17372 -2.84971,0.27078 -3.61725,0.98777 -1.19264,1.1141 -1.17525,1.63983 0.1196,3.61602 2.23191,3.40632 5.71937,2.62098 5.71937,-1.28795 z m -51.32695,-11 0.32695,-3 10.85548,-0.2849 c 7.54165,-0.19793 11.3575,0.0973 12.5,0.96703 0.90449,0.68856 1.34756,0.89481 0.98462,0.45834 -0.36295,-0.43648 0.19336,-2.72255 1.23624,-5.08014 2.73503,-6.183 5.68383,-19.71568 6.46159,-29.65367 1.72613,-22.05603 -6.1084,-48.95827 -19.33337,-66.38698 -2.49584,-3.289175 -4.53789,-6.551675 -4.53789,-7.25 0,-0.698324 -0.21274,-1.056947 -0.47274,-0.79694 -0.26001,0.260008 -4.06565,-2.90721 -8.45699,-7.03826 -4.39133,-4.131051 -9.29331,-8.187949 -10.89328,-9.015329 -1.59998,-0.82738 -2.67418,-1.884355 -2.38712,-2.348834 0.28707,-0.464479 -0.0357,-0.800988 -0.7173,-0.747798 -0.68158,0.05319 -5.51424,-2.024356 -10.73924,-4.616768 -5.225,-2.592412 -14,-5.898063 -19.5,-7.345892 -8.69914,-2.289974 -11.9513,-2.629399 -25,-2.609228 -11.72977,0.01813 -16.73966,0.465813 -22.97953,2.053439 -4.38874,1.116639 -8.2878,1.839726 -8.66459,1.606861 -0.37678,-0.232866 -0.83599,-0.08309 -1.02047,0.332838 -0.4613,1.040069 -14.93344,7.495887 -17.03779,7.600319 -0.93631,0.04647 -1.52545,0.261414 -1.3092,0.477662 0.21625,0.216248 -1.74632,1.832953 -4.36126,3.592677 -2.61494,1.759725 -6.34045,4.409213 -8.27892,5.887751 -1.93846,1.478539 -3.89447,2.352906 -4.34668,1.943037 -0.45222,-0.409868 -0.53071,-0.234822 -0.17443,0.388991 0.35714,0.625325 -1.35345,2.97887 -3.8126,5.24564 -10.806459,9.961042 -22.015718,29.031734 -26.39798,44.911774 -4.878906,17.67973 -4.894167,37.72521 -0.04205,55.23466 3.573656,12.89597 2.899745,12.37585 15.653834,12.08153 11.876376,-0.27407 14.651646,0.72315 13.566016,4.8746 -0.51559,1.97161 -0.0977,2.01687 18.33902,1.98579 14.02032,-0.0236 19.31216,-0.37013 20.60109,-1.34888 0.95395,-0.72439 1.44145,-1.61008 1.08333,-1.9682 C 142.95967,205.29301 143.26667,205 144,205 c 0.73333,0 1.03724,-0.2961 0.67534,-0.65799 -0.36189,-0.3619 -0.19742,-1.21294 0.36549,-1.89121 1.8025,-2.17187 2.12344,-10.06958 0.46513,-11.44585 C 144.6898,190.32759 144.23711,189.42536 144.5,189 c 0.26289,-0.42536 -0.19207,-1.32947 -1.01101,-2.00914 C 142.67005,186.3112 142,185.19031 142,184.5 c 0,-0.69031 -0.72188,-1.85422 -1.60418,-2.58646 -1.80723,-1.49987 -3.61217,-5.41378 -3.88112,-8.41602 -0.0987,-1.10137 -0.72067,-3.01387 -1.38223,-4.25 -0.66156,-1.23614 -0.8495,-2.25441 -0.41765,-2.26283 0.43185,-0.008 0.25201,-0.35435 -0.39964,-0.76874 -0.65165,-0.41438 -1.3626,-2.09499 -1.57988,-3.73468 -0.21728,-1.6397 -1.25912,-3.43127 -2.31518,-3.98127 -1.05607,-0.55 -2.06924,-2.06169 -2.2515,-3.35931 -0.24423,-1.73885 0.0188,-2.15387 1,-1.57811 0.73226,0.42967 0.47844,-0.19138 -0.56403,-1.38011 -1.24706,-1.422 -1.94421,-3.83836 -2.03805,-7.06404 -0.0785,-2.6965 -0.68411,-5.55517 -1.34591,-6.35259 -0.6618,-0.79742 -0.88271,-1.77042 -0.49091,-2.16222 0.3918,-0.3918 0.0534,-1.11963 -0.75202,-1.6174 -1.04865,-0.6481 -1.47159,-2.83288 -1.48975,-7.69563 -0.014,-3.73482 -0.29621,-7.24059 -0.62724,-7.79059 -1.13557,-1.88674 1.25676,-16.34834 3.60012,-21.762735 0.42722,-0.987086 0.27748,-2.34765 -0.34028,-3.092009 -0.60676,-0.731101 -0.79009,-1.642386 -0.4074,-2.025078 1.20252,-1.202511 1.38397,-5.442121 0.26259,-6.135173 -0.7521,-0.464822 -0.72276,-1.084906 0.0982,-2.074033 C 125.71794,83.634938 125.88635,83 125.44813,83 c -0.43822,0 0.15444,-1.0125 1.31701,-2.25 1.16257,-1.2375 2.0568,-2.475 1.98719,-2.75 -0.21491,-0.848913 9.46808,-10.980447 10.12723,-10.596359 0.34124,0.198843 1.74544,-0.121385 3.12044,-0.711617 1.375,-0.590232 4.74957,-1.132473 7.49904,-1.20498 5.29072,-0.139523 8.11817,1.462151 7.12947,4.038655 C 156.28216,70.428267 156.65518,71 157.5904,71 c 0.8402,0 1.28103,-0.399012 0.97963,-0.886693 -1.11674,-1.806924 2.1283,-2.819846 9.17997,-2.865473 3.9875,-0.0258 7.25,0.326584 7.25,0.783077 0,0.456493 0.97725,0.973785 2.17167,1.149538 1.19442,0.175753 2.38082,0.953758 2.63645,1.728901 0.30363,0.920691 -0.0474,1.212815 -1.01235,0.84252 -0.81243,-0.311756 -2.09344,-0.185936 -2.84669,0.279601 -1.11971,0.692015 -1.02794,1.223904 0.503,2.915575 1.61299,1.782341 2.09262,1.878195 3.46023,0.691537 0.87323,-0.757684 2.19389,-1.159261 2.9348,-0.892393 1.10187,0.396885 1.12455,0.05456 0.12456,-1.880488 -1.05918,-2.049612 -0.77153,-1.947803 2.1529,0.761962 2.66836,2.472492 4.1722,3.092988 7.17904,2.962129 2.09198,-0.09104 4.28458,0.414007 4.87244,1.122336 C 197.76391,78.420458 198.83446,79 199.55506,79 c 0.72059,0 1.59789,0.906534 1.94955,2.014521 0.35166,1.107986 0.97505,1.807066 1.38531,1.55351 0.41026,-0.253556 2.05648,0.75241 3.65825,2.235479 1.60177,1.48307 3.37121,2.54649 3.93207,2.363157 0.56087,-0.183334 0.68616,2.62e-4 0.27844,0.40799 -0.40773,0.407729 -0.24013,1.345229 0.37244,2.083334 C 211.74369,90.396096 211.89504,91 211.46746,91 c -0.42759,0 0.0371,0.9 1.03254,2 0.99549,1.1 1.46013,2 1.03254,2 -0.42758,0 -0.21723,0.675 0.46746,1.5 0.68469,0.825 0.89504,1.5 0.46746,1.5 -0.42759,0 -0.0139,0.843678 0.91927,1.874841 0.93319,1.031159 1.60844,2.268659 1.50055,2.749999 -0.10789,0.48134 0.62189,2.67516 1.62173,4.87516 1.24971,2.74979 1.81093,6.34414 1.79561,11.5 -0.0342,11.49752 -0.54698,12.94074 -5.47044,15.39535 -1.2838,0.64004 -2.27793,1.93793 -2.20918,2.88418 0.28346,3.90147 0.45348,4.19014 1.4551,2.47047 0.5606,-0.9625 1.52399,-1.75 2.14085,-1.75 0.61686,0 2.057,-0.7875 3.20031,-1.75 2.04818,-1.72427 2.05298,-1.7194 0.32656,0.33115 -0.9637,1.14463 -1.4137,2.41963 -1,2.83333 0.4137,0.4137 0.0772,0.60219 -0.74782,0.41885 -1.55587,-0.34574 -2.27431,3.67747 -1.01192,5.66667 0.86408,1.36157 0.6771,2.63568 -0.73378,5 -1.18158,1.98005 -1.19379,1.97911 -1.22389,-0.095 C 215.01368,149.25273 214.1,147.49549 213,146.5 c -1.1,-0.99549 -2,-2.38867 -2,-3.09597 0,-2.10732 -1.72836,-2.53281 -3.41938,-0.84179 -1.38069,1.38069 -1.58062,1.38932 -1.58062,0.0682 0,-0.83183 0.40992,-1.76576 0.91093,-2.0754 0.96214,-0.59463 0.93343,-2.38498 -0.065,-4.05505 -0.32881,-0.55 -0.54116,-2.64971 -0.47188,-4.66603 0.0926,-2.69503 -0.18385,-3.40863 -1.04374,-2.69419 -0.82899,0.68876 -1.08944,0.44584 -0.89414,-0.83397 0.15155,-0.9932 -0.31683,-3.49957 -1.04085,-5.56973 -0.72402,-2.07015 -1.30252,-3.87015 -1.28555,-4 0.017,-0.12984 -0.46338,-1.53599 -1.06743,-3.12477 -0.60405,-1.58878 -0.86459,-3.12237 -0.57897,-3.40799 0.28561,-0.28562 0.0181,-1.12321 -0.59447,-1.86131 -0.76063,-0.91647 -0.77659,-1.342 -0.0504,-1.342 0.58488,0 1.34608,0.45734 1.69154,1.01631 0.34546,0.55897 1.07634,0.7393 1.62416,0.40072 0.61286,-0.37876 0.42451,-1.25063 -0.48959,-2.26631 -0.8171,-0.90789 -1.68141,-3.22572 -1.92069,-5.15072 -0.23927,-1.925 -0.92244,-3.396703 -1.51814,-3.270452 -0.59571,0.126251 -0.91156,-0.661249 -0.70188,-1.75 C 198.73004,96.805474 198.34229,96 197.55099,96 c -1.53467,0 -2.94823,-4.548235 -1.92708,-6.200497 0.37681,-0.609686 0.27808,-0.861223 -0.2194,-0.558972 -2.00847,1.220278 -4.22792,-3.10326 -2.23992,-4.363415 1.07986,-0.684503 1.08491,-0.849421 0.0264,-0.861803 -0.7333,-0.0086 -0.9952,-0.523076 -0.59549,-1.169821 0.41437,-0.670462 0.27699,-0.884712 -0.32767,-0.511011 -0.57267,0.353924 -1.57514,1.43e-4 -2.22773,-0.786181 -1.547,-1.864021 -3.88716,-0.935366 -8.69809,3.4517 -2.11099,1.925 -3.96437,3.338375 -4.11863,3.140834 -0.15426,-0.197541 -1.28012,-0.03308 -2.50192,0.365478 -1.2218,0.398554 -2.44645,0.79207 -2.72145,0.874479 -0.275,0.08241 -1.0625,0.507001 -1.75,0.943539 -0.7665,0.4867 -1.25592,0.287378 -1.26531,-0.515313 -0.0101,-0.865605 -0.26418,-0.945573 -0.75,-0.236075 -0.6256,0.913619 -3.56244,2.515937 -5.23469,2.856004 -0.275,0.05592 -0.98787,0.412723 -1.58416,0.792887 -0.59628,0.380164 -2.54962,0.949386 -4.34075,1.264938 -1.79113,0.315552 -3.55326,0.626236 -3.91584,0.690409 C 151.58805,95.455263 144,93.678656 144,93.032707 144,92.45575 139.65259,90 138.6312,90 c -0.15108,0 -1.29294,2.25305 -2.53747,5.006778 -1.24453,2.753728 -2.65762,4.762756 -3.14019,4.464506 -1.19133,-0.736278 -0.27441,7.437156 1.0076,8.981896 0.56183,0.67696 0.72541,1.52693 0.36352,1.88883 C 133.96276,110.7039 134.49167,111 135.5,111 c 1.00833,0 1.53724,0.2961 1.17534,0.65799 -0.36189,0.3619 -0.18617,1.22649 0.39049,1.92133 0.8023,0.96671 0.56548,1.13702 -1.00868,0.72537 -2.89907,-0.75812 -2.73342,2.44795 0.19285,3.7325 1.2375,0.54323 3.71639,1.87513 5.50865,2.95977 1.79226,1.08464 3.49583,1.96297 3.78571,1.95184 0.28989,-0.0111 1.21814,0.67084 2.06278,1.51549 0.84465,0.84464 1.22347,1.53571 0.84184,1.53571 -0.38163,0 -0.11149,0.70172 0.6003,1.55938 1.50855,1.81769 2.0303,10.90869 0.81592,14.21674 -0.45956,1.25186 -1.02363,3.27686 -1.25349,4.5 -0.22986,1.22313 -0.71546,3.38227 -1.07911,4.79808 -0.45067,1.75464 -0.16314,2.98754 0.90311,3.87245 0.86036,0.71403 1.56429,1.04483 1.56429,0.7351 0,-0.30973 1.21379,0.0666 2.69732,0.83624 2.02543,1.05081 3.03654,1.11785 4.05916,0.26915 0.74901,-0.62163 2.50408,-1.25201 3.90016,-1.40086 1.39607,-0.14884 3.1373,-1.08415 3.86941,-2.07845 1.28335,-1.74296 1.35638,-1.74263 2.03531,0.009 0.84092,2.17 -0.89689,4.18278 -3.61136,4.18278 -2.67956,0 -2.69311,1.76132 -0.024,3.12401 1.21087,0.6182 3.43392,2.30466 4.94011,3.74769 1.89392,1.81449 3.05893,2.30329 3.77736,1.58486 1.18989,-1.18989 7.6519,4.75655 6.75174,6.21305 -0.29336,0.47466 -0.94713,0.6073 -1.45282,0.29476 -0.5057,-0.31253 -0.65146,0.13013 -0.32392,0.98369 0.83854,2.1852 -0.44599,1.92784 -3.09283,-0.61966 -2.34688,-2.25879 -6.03665,-3.4643 -4.88122,-1.59477 0.43935,0.71088 -0.29738,0.81535 -2.24524,0.31839 -5.29323,-1.35048 -6.35252,-1.43649 -6.89435,-0.55978 -0.2955,0.47812 -2.29095,0.69484 -4.43434,0.48161 -2.76607,-0.27518 -4.285,0.0908 -5.23377,1.26118 -0.73518,0.90689 -0.82518,1.34246 -0.2,0.96794 0.62518,-0.37452 1.65103,-0.0612 2.27966,0.69624 0.69187,0.83364 3.04481,1.36105 5.96173,1.33629 2.65032,-0.0225 5.4065,0.32235 6.12485,0.76631 0.83363,0.51522 1.06343,0.41458 0.63527,-0.2782 -0.36895,-0.59698 -0.21348,-1.36807 0.34549,-1.71353 0.55897,-0.34546 1.01631,-0.0766 1.01631,0.59757 0,0.67413 0.28086,0.94482 0.62414,0.60154 0.34328,-0.34328 1.42926,0.36922 2.41329,1.58333 1.89845,2.34234 0.82489,5.37873 -1.40074,3.96178 -0.62518,-0.39802 -1.81169,-0.77052 -2.63669,-0.82778 -0.825,-0.0573 -2.625,-0.57964 -4,-1.16084 -1.47726,-0.62442 -2.88864,-0.69037 -3.45,-0.1612 -0.5225,0.49254 -2.01156,0.89552 -3.30902,0.89552 -1.42615,0 -2.09657,0.42464 -1.69535,1.07382 0.36501,0.59061 -0.28846,0.47922 -1.45216,-0.24752 -1.1637,-0.72674 -2.36611,-2.10996 -2.67203,-3.07382 C 148.11552,176.78861 147.47139,176 146.99003,176 c -0.48136,0 -0.70369,-0.89054 -0.49408,-1.97897 0.20961,-1.08844 -0.0915,-2.27109 -0.66922,-2.62812 -1.44049,-0.89027 -2.93549,1.77112 -1.7782,3.16556 0.51376,0.61905 0.62017,1.43949 0.23646,1.8232 -0.38371,0.38371 0.26692,0.9499 1.44583,1.25819 1.7989,0.47042 1.99681,0.94632 1.23109,2.96034 -0.77221,2.03106 -0.6089,2.3998 1.06284,2.3998 1.42245,0 1.97525,0.67677 1.97525,2.41821 0,3.67565 1.02399,5.58179 2.99858,5.58179 1.07374,0 2.03674,1.0046 2.41759,2.52203 0.53268,2.12235 0.93682,2.35942 2.55022,1.49596 1.15056,-0.61576 1.76795,-1.80114 1.54394,-2.96435 -0.44457,-2.30847 1.80534,-1.81772 5.06386,1.10452 1.1408,1.02307 2.38498,1.54934 2.76484,1.16948 0.37985,-0.37986 2.59647,-0.8596 4.92581,-1.06608 2.32934,-0.20649 4.77266,-0.42481 5.4296,-0.48516 0.65695,-0.0603 1.10695,-0.57678 1,-1.14761 -0.10694,-0.57084 0.81806,-1.11459 2.05556,-1.20834 1.2375,-0.0937 2.3625,-0.26113 2.5,-0.37196 0.1375,-0.11083 1.14183,-0.36758 2.23185,-0.57055 1.09001,-0.20296 2.14628,-0.86232 2.34724,-1.46522 0.25856,-0.77568 0.77915,-0.75281 1.78049,0.0782 1.62206,1.3462 0.1587,3.90906 -2.23202,3.90906 -0.75766,0 -1.37756,0.44143 -1.37756,0.98095 0,0.53952 -1.09188,1.25499 -2.4264,1.58993 -1.33453,0.33495 -3.20427,1.46852 -4.15499,2.51906 -0.95072,1.05053 -2.18591,1.91006 -2.74486,1.91006 -0.55895,0 -1.91655,0.7875 -3.0169,1.75 -1.13133,0.9896 -1.64667,1.14799 -1.186,0.36453 0.44805,-0.76201 -0.57772,-0.35606 -2.27949,0.90211 -3.42218,2.53013 -4.60876,4.60736 -3.14769,5.51035 C 167.56965,207.85207 168,207.38992 168,206.5 c 0,-0.88992 0.36977,-1.38951 0.8217,-1.1102 0.45194,0.27932 2.07837,-0.14413 3.61431,-0.94098 1.53593,-0.79685 3.75367,-1.41719 4.9283,-1.37853 1.58052,0.052 1.74577,0.24697 0.63569,0.75 -0.825,0.37384 -1.61667,1.25473 -1.75928,1.95754 -0.41796,2.05993 2.44505,2.52541 5.66205,0.92056 2.72891,-1.36136 3.12078,-1.32985 4.66358,0.37493 1.62133,1.79154 1.91586,1.62858 7.87266,-4.35607 5.65372,-5.68015 7.66009,-8.48634 8.02008,-11.21725 0.0725,-0.55 0.632,-0.90146 1.24333,-0.78101 0.61133,0.12044 0.98448,-0.55456 0.82922,-1.5 -0.15526,-0.94545 0.30454,-2.39399 1.02177,-3.21899 0.71724,-0.825 1.39005,-1.95 1.49513,-2.5 0.10508,-0.55 0.58715,-2.04179 1.07126,-3.3151 0.48411,-1.2733 0.8802,-3.25555 0.8802,-4.40499 0,-2.02867 0.0588,-2.03671 2.00613,-0.27436 1.10337,0.99854 1.81677,2.00488 1.58533,2.23632 -0.51747,0.51747 3.6649,7.02904 6.26763,9.75813 1.04907,1.1 1.77475,2.7875 1.61264,3.75 -0.16212,0.9625 0.3101,1.75 1.04937,1.75 0.73927,0 1.59938,0.80423 1.91135,1.78718 0.31198,0.98295 1.50326,1.8577 2.6473,1.94387 3.49967,0.26363 4.5471,1.93408 4.37852,6.98291 l -0.1598,4.78604 5.10076,0.51582 c 5.99247,0.60599 6.34453,0.42325 6.77382,-3.51582 z m -61.30061,-1.25 c -1.24387,-1.58606 -1.2085,-1.62143 0.37756,-0.37756 0.9625,0.75485 1.75,1.54235 1.75,1.75 0,0.82304 -0.82119,0.29331 -2.12756,-1.37244 z M 156,190 c -0.90129,-0.58246 -1.02463,-0.97549 -0.30902,-0.98469 0.65504,-0.008 1.4691,0.43469 1.80902,0.98469 0.7673,1.24153 0.42112,1.24153 -1.5,0 z m 34,-3.20324 c 0,-0.85353 0.67005,-2.10796 1.48899,-2.78762 0.81894,-0.67967 1.29589,-1.54819 1.05988,-1.93007 -0.23601,-0.38187 0.66894,-1.51891 2.01101,-2.52676 1.34207,-1.00785 2.44012,-2.61432 2.44012,-3.56994 0,-0.95561 0.675,-2.29768 1.5,-2.98237 0.825,-0.68469 1.5,-1.77479 1.5,-2.42244 0,-0.64766 0.5625,-1.74006 1.25,-2.42756 0.6875,-0.6875 1.27045,-1.79 1.29545,-2.45 0.025,-0.66 0.54135,-1.10288 1.14744,-0.98419 0.6061,0.1187 0.91729,-0.5563 0.69155,-1.5 -0.22575,-0.94369 0.005,-2.35129 0.51181,-3.12799 0.78449,-1.20123 1.15853,-1.17589 2.50407,0.16964 0.91565,0.91565 1.1455,1.72727 0.54578,1.92717 -0.56983,0.18995 -1.12687,1.95111 -1.23786,3.9137 -0.11383,2.01256 -0.72903,3.56834 -1.41104,3.56834 -0.66507,0 -0.94487,-0.4875 -0.62178,-1.08334 0.32309,-0.59583 -0.53875,0.0417 -1.9152,1.41667 -1.37645,1.375 -2.34055,2.78651 -2.14244,3.13669 0.19811,0.35018 -0.30985,1.19278 -1.12879,1.87245 -0.81894,0.67966 -1.48899,1.7859 -1.48899,2.45832 0,0.67241 -0.88939,2.02745 -1.97642,3.0112 -1.08703,0.98375 -1.7759,2.11308 -1.53082,2.50963 0.24508,0.39654 -0.66553,1.76484 -2.02358,3.04066 -1.90167,1.78653 -2.46918,1.963 -2.46918,0.76781 z m 29.69385,-33.43624 c -0.35171,-0.35171 -0.3211,-1.13921 0.068,-1.75 0.38913,-0.61079 0.77065,-1.44802 0.84782,-1.86052 0.0772,-0.4125 0.25281,-0.975 0.39031,-1.25 0.1375,-0.275 0.34396,-0.8375 0.45879,-1.25 0.70568,-2.53482 2.59782,-6.25 3.18313,-6.25 0.38028,0 0.39532,0.2961 0.0334,0.65799 -0.36189,0.3619 -0.13572,1.28729 0.50261,2.05642 0.90597,1.09163 0.84922,1.33121 -0.25868,1.09201 -0.82343,-0.17778 -1.4796,0.53323 -1.56297,1.69358 -0.079,1.1 -0.24483,2.45 -0.36842,3 -0.1236,0.55 -0.17143,1.3375 -0.1063,1.75 0.0651,0.4125 -0.44408,0.6375 -1.13158,0.5 -0.6875,-0.1375 -1.1375,0.3125 -1,1 0.27595,1.37976 -0.0807,1.58594 -1.05615,0.61052 z m -52.74886,-16.9268 c -0.66068,-0.79607 -2.33108,-2.00682 -3.712,-2.69056 -1.38092,-0.68374 -2.33577,-1.53342 -2.12188,-1.88817 0.21389,-0.35476 -0.43917,-1.56001 -1.45124,-2.67834 -3.91063,-4.32119 0.67666,-8.0072 10.34824,-8.31508 2.47054,-0.0786 5.05439,-0.58477 5.74189,-1.12473 0.79191,-0.62195 1.25,-0.628 1.25,-0.0165 0,0.53087 2.025,2.00672 4.5,3.27966 2.475,1.27294 4.5,2.69369 4.5,3.15722 0,0.46353 0.3375,0.73028 0.75,0.59278 0.4125,-0.1375 0.75,0.19695 0.75,0.74321 0,1.30713 -2.58855,0.69369 -4.58115,-1.08565 -0.86963,-0.77656 -1.95428,-1.07344 -2.41033,-0.65974 -0.45604,0.4137 -0.57044,0.29481 -0.25421,-0.26421 0.31623,-0.55901 -0.49488,-1.52127 -1.80246,-2.13835 -2.51343,-1.18615 -2.99591,-0.0344 -0.93121,2.22299 1.37611,1.50452 5.80056,3.90716 6.71784,3.64804 0.40617,-0.11473 0.64552,0.91466 0.53189,2.28755 -0.14791,1.7872 -0.78368,2.48713 -2.23848,2.46436 -2.40882,-0.0377 -6.75627,-2.95107 -4.47302,-2.99751 0.85188,-0.0173 0.0597,-1.28522 -1.93752,-3.10086 -2.347,-2.13366 -3.60252,-2.70932 -4.11181,-1.88527 -0.40323,0.65244 -1.02034,1.14783 -1.37134,1.10085 -0.35101,-0.047 -0.6721,0.25209 -0.71353,0.66459 -0.0414,0.4125 1.27023,1.1416 2.91481,1.62023 3.55357,1.0342 4.85474,4.21496 2.02675,4.9545 -1.9885,0.52001 -4.85523,-1.62123 -4.88154,-3.64616 -0.009,-0.69866 -0.39568,-0.57708 -0.94941,0.29859 -0.63009,0.99641 -0.46238,1.9984 0.51531,3.07874 1.81391,2.00435 1.81792,2.58871 0.0225,3.27767 -0.78478,0.30115 -1.96744,-0.10378 -2.62812,-0.89985 z M 222.87244,136.25 c -1.24387,-1.58606 -1.2085,-1.62143 0.37756,-0.37756 0.9625,0.75485 1.75,1.54235 1.75,1.75 0,0.82304 -0.82119,0.29331 -2.12756,-1.37244 z M 157.5,208 c 0.33992,-0.55 1.66138,-1 2.93657,-1 3.11742,0 5.07237,-2.33273 3.23375,-3.85865 -0.74489,-0.6182 -1.58631,-0.89203 -1.86983,-0.60851 -0.28352,0.28352 -1.08471,-0.17038 -1.78043,-1.00867 -0.69572,-0.8383 -1.8,-1.52417 -2.45394,-1.52417 -0.65395,0 -2.07892,-0.7875 -3.1666,-1.75 -2.89389,-2.56082 -5.34233,-2.94928 -3.12146,-0.49524 2.26151,2.49894 2.17602,3.89323 -0.27806,4.53499 -2.06559,0.54016 -2.81903,2.71025 -0.94098,2.71025 0.58246,0 0.7809,0.45 0.44098,1 -1.04652,1.69331 0.47795,3 3.5,3 1.58508,0 3.16008,-0.45 3.5,-1 z M 303.75314,194.52084 C 312.06149,161.41053 306.77756,124.69154 289.35996,94.5 281.07245,80.134484 266.73173,63.951485 253.95258,54.544007 250.73295,52.173849 248.414,49.919338 248.79935,49.533981 249.18471,49.148625 249.05,48.924123 248.5,49.035088 c -2.14072,0.431899 -3.58884,-0.08233 -2.98469,-1.059865 0.34834,-0.563627 0.2624,-0.907199 -0.19098,-0.763495 C 244.87095,47.355433 240,45.16039 234.5,42.333854 190.92889,19.941982 137.39537,22.962722 97.442523,50.067608 93.074135,53.031218 89.05,55.315892 88.5,55.144661 c -0.55,-0.17123 -0.695115,-0.0064 -0.322478,0.366194 0.372637,0.372637 -0.967688,2.097637 -2.9785,3.833333 C 83.18821,61.079885 80.239146,63.625 78.645545,65 c -1.593601,1.375 -5.269599,5.283677 -8.168885,8.685949 -2.899285,3.402272 -5.542605,5.989772 -5.874044,5.75 -0.331439,-0.239772 -0.413322,-0.171655 -0.181963,0.15137 0.231358,0.323026 -1.972918,4.260526 -4.898392,8.75 -2.925474,4.489475 -6.113923,9.830908 -7.085442,11.869851 -0.971518,2.03895 -2.137087,3.47807 -2.590154,3.19806 -0.453066,-0.28001 -0.527438,0.26309 -0.165272,1.20688 0.378786,0.9871 0.25256,1.4651 -0.297169,1.12535 -0.525609,-0.32484 -0.9894,0.16384 -1.030647,1.08596 -0.04125,0.92212 -1.736423,6.52954 -3.767056,12.46093 -8.045489,23.50053 -9.552172,51.24643 -3.96897,73.08949 0.825761,3.23061 1.254778,6.51648 0.953371,7.30194 -0.301407,0.78545 -0.154328,1.18478 0.326842,0.88741 0.481171,-0.29738 1.108887,0.35424 1.394926,1.44806 C 43.765482,203.8192 44.671574,204 53.259689,204 58.4555,204 65.3964,203.71886 68.683911,203.37525 l 5.977294,-0.62475 -2.345714,-6.46237 C 65.114999,176.451 65.404698,146.12224 72.982105,126.5 c 0.637171,-1.65 1.15413,-3.09917 1.148796,-3.22039 -0.0053,-0.12121 1.704376,-3.72121 3.799352,-8 14.217545,-29.037962 42.832867,-50.604893 75.320107,-56.767618 10.21196,-1.937175 28.28732,-1.937175 38.49928,0 13.26264,2.51588 29.61736,8.80615 31.56182,12.139149 0.4463,0.765008 1.22584,1.134824 1.7323,0.821813 1.26694,-0.783014 8.12651,4.004745 7.20092,5.02602 -0.40957,0.451922 -0.22492,0.52439 0.41033,0.161039 1.30189,-0.744644 9.99607,6.124777 9.57021,7.561583 -0.15112,0.509885 0.10408,0.692921 0.56712,0.406746 1.53407,-0.948109 17.5737,16.970378 16.60049,18.545058 -0.28097,0.45463 -0.071,0.8266 0.46659,0.8266 1.06073,0 4.77906,5.58337 5.31187,7.97619 0.18079,0.81191 0.85815,2.04848 1.50523,2.74795 2.13805,2.31112 7.53131,17.62509 9.4299,26.77586 3.37224,16.25344 2.07848,38.96362 -3.07098,53.90655 -1.11949,3.2486 -2.03544,6.2861 -2.03544,6.75 0,0.4639 1.82656,0.84345 4.05902,0.84345 2.23246,0 3.84902,0.3375 3.59236,0.75 -0.25666,0.4125 4.77929,0.525 11.19099,0.25 L 301.5,203.5 Z M 55.199082,193.94717 c -0.912043,-1.46041 -0.82915,-2.17424 0.39459,-3.39798 1.875416,-1.87542 3.031396,-1.96041 4.069191,-0.29919 1.436747,2.29984 1.14394,3.517 -1.091043,4.53532 -1.775455,0.80895 -2.448571,0.64168 -3.372738,-0.83815 z M 287.2,194.8 c -1.4619,-1.4619 -1.56962,-4.45353 -0.19105,-5.30553 1.68622,-1.04214 4.99105,0.52909 4.99105,2.37292 0,1.67957 -1.78074,4.13261 -3,4.13261 -0.33,0 -1.14,-0.54 -1.8,-1.2 z M 46.789315,178.6367 c -2.557369,-1.94296 -3.599573,-5.69502 -2.606869,-9.38505 1.625879,-6.04363 11.989038,-8.03461 16.407539,-3.15222 2.842281,3.14069 2.513712,9.5503 -0.612712,11.9526 -2.903812,2.23124 -10.573169,2.57126 -13.187958,0.58467 z m 11.639256,-3.20813 c 4.273645,-4.27364 -0.34575,-10.22949 -6.970177,-8.98674 -4.4098,0.82728 -6.37782,4.24483 -4.640348,8.05817 0.966615,2.12149 1.812829,2.5 5.589087,2.5 2.71213,0 5.063706,-0.6137 6.021438,-1.57143 z m 236.155529,1.92999 c -0.48942,-1.27539 -0.33442,-1.39623 0.69504,-0.54185 0.72871,0.60477 2.31402,0.84094 3.5229,0.52481 1.29485,-0.33861 2.19796,-0.11598 2.19796,0.54185 0,1.79827 -5.70348,1.33173 -6.4159,-0.52481 z m 0.28834,-6.10856 c -1.20598,-1.53775 -1.1842,-1.60347 0.1796,-0.54185 0.85362,0.66448 2.54112,0.9495 3.75,0.63337 1.29485,-0.33861 2.19796,-0.11598 2.19796,0.54185 0,1.77233 -4.61498,1.29531 -6.12756,-0.63337 z M 283,163.48087 c 0,-1.38713 1.08573,-1.68121 6.71354,-1.81842 1.59975,-0.039 2.38682,-0.84291 2.83845,-2.89917 0.89164,-4.05962 -0.96956,-5.82401 -5.82001,-5.51728 -2.38642,0.15092 -4.18551,-0.22333 -4.43295,-0.92215 -0.28474,-0.80414 2.13249,-1.39851 7.64225,-1.87913 8.04368,-0.70166 8.05872,-0.70833 8.05872,-3.57385 0,-2.86469 1.70753,-3.98997 2.45956,-1.62087 0.21824,0.6875 0.57864,3.8375 0.80089,7 0.30394,4.32492 0.0739,5.75 -0.92818,5.75 C 299.57785,158 299,156.91567 299,155.5 c 0,-2.14583 -0.45333,-2.5 -3.2,-2.5 -2.48889,0 -2.93333,0.26667 -2,1.2 1.57593,1.57593 1.5425,7.28542 -0.05,8.53941 -0.6875,0.54136 -3.3875,1.26285 -6,1.60331 -3.80696,0.49612 -4.75,0.32501 -4.75,-0.86185 z M 55,157.84469 c -10.663473,-1.56793 -12,-1.93849 -12,-3.32713 0,-1.4209 4.235264,-1.26987 10,0.3566 4.562066,1.28715 7,0.29461 7,-2.84987 0,-2.67315 -0.302536,-2.87388 -5.25,-3.48337 -8.634675,-1.06373 -10.875019,-1.66586 -10.49047,-2.81951 0.201008,-0.60303 0.962483,-1.29541 1.692166,-1.53864 0.729682,-0.24323 1.087757,-0.0464 0.795721,0.4375 -0.292037,0.48385 2.9432,0.99776 7.189415,1.14202 l 7.720391,0.2623 -0.429932,-2.92932 c -0.47159,-3.21315 -2.348426,-4.07133 -10.035768,-4.58884 -4.673455,-0.31462 -6.086447,-1.04963 -4.624856,-2.40574 0.957756,-0.88865 15.780321,0.88512 16.899517,2.02231 0.725136,0.73679 -1.430957,19.11416 -2.341033,19.9537 C 60.781318,158.39388 58.025,158.28948 55,157.84469 Z m 226,-16.87607 c 0,-1.123 0.15503,-1.19011 7.5,-3.24671 l 5,-1.40001 -7.1712,-2.23442 c -6.38245,-1.98865 -9.55699,-4.27444 -7.53513,-5.42557 0.38848,-0.22118 4.24234,-1.17708 8.56414,-2.12422 5.33822,-1.1699 8.18467,-1.39521 8.8772,-0.70268 0.69253,0.69253 -0.38414,1.37506 -3.35781,2.12859 -2.40746,0.61006 -5.2772,1.49523 -6.3772,1.96704 -2.31697,0.99379 -2.11827,1.09958 6.75,3.59397 6.93361,1.95022 7.48919,3.9684 1.5,5.44884 -2.3375,0.57779 -5.87721,1.49514 -7.86602,2.03854 C 282.29191,142.26669 281,142.25716 281,140.96862 Z M 70.47486,125.95932 c -0.353746,-0.57237 -1.505303,-0.76705 -2.559017,-0.43261 C 66.584298,125.94933 66,125.65675 66,124.56739 66,123.70532 66.400147,123 66.889216,123 c 1.059878,0 5.919954,3.91858 4.919801,3.96673 -0.380041,0.0183 -0.980411,-0.43503 -1.334157,-1.00741 z M 275.78349,121.25 c -2.50331,-2.86984 -3.97488,-6.30885 -3.37195,-7.88008 0.31785,-0.82831 0.13259,-1.20621 -0.42299,-0.86284 -0.5437,0.33602 -0.98855,0.1872 -0.98855,-0.33071 0,-1.05133 10.64081,-6.5097 12.69033,-6.5097 0.72032,0 1.30967,-0.3 1.30967,-0.66667 0,-0.36667 0.62742,-0.66667 1.39427,-0.66667 1.54546,0 4.94226,6.31313 4.11607,7.64994 -0.28754,0.46525 -0.005,1.01835 0.62683,1.22912 C 293.5707,114.02357 290.10529,118 286.96482,118 285.33417,118 284,118.41786 284,118.92857 284,120.48613 280.96438,123 279.08356,123 c -0.97547,0 -2.4605,-0.7875 -3.30007,-1.75 z m 5.20273,-2.22032 c 1.23746,-0.78241 1.28458,-1.47389 0.28155,-4.13123 -0.66257,-1.75534 -0.97846,-3.55755 -0.70197,-4.00491 0.27648,-0.44736 -0.86355,-0.3371 -2.53339,0.24501 -4.06158,1.41587 -4.25491,1.96644 -1.99528,5.6821 2.07461,3.41143 2.64483,3.66595 4.94909,2.20903 z m 7.25754,-8.09106 c -1.72266,-4.38544 -2.03247,-4.54754 -4.80263,-2.51287 -1.86163,1.36736 -1.87054,1.54591 -0.21748,4.35969 0.94801,1.61366 1.43131,3.22627 1.074,3.58358 -0.35731,0.35731 0.7325,0.16783 2.42179,-0.42106 l 3.07145,-1.07071 z m -219.949333,9.24335 c -0.65387,-0.40412 -0.863231,-1.26163 -0.465247,-1.90558 0.465458,-0.75312 1.246336,-0.84775 2.188854,-0.26524 0.976832,0.60371 1.131914,1.2389 0.465248,1.90557 -0.55,0.55 -1.534985,0.66936 -2.188855,0.26525 z m -3.093925,-10.20111 c -1.956705,-1.19298 -3.012989,-2.47525 -2.595491,-3.15077 0.421369,-0.68179 0.260649,-0.8651 -0.400329,-0.45659 -1.574511,0.9731 -3.486415,-3.11485 -2.777608,-5.93896 C 60.176399,97.44899 63.800639,94 66.188561,94 c 2.677171,0 2.199213,1.70404 -0.896272,3.195434 -1.48924,0.717511 -2.970875,2.42468 -3.292521,3.793706 -0.795247,3.38482 3.733485,7.20125 8.989561,7.57563 l 3.855823,0.27464 -0.252114,-4.46604 c -0.279747,-4.955529 0.749707,-6.469979 2.356789,-3.46712 C 78.281319,103.39417 78.311008,107 77,107 c -0.55,0 -1,0.60277 -1,1.33948 0,1.33481 -4.01072,3.66389 -6.297053,3.65678 -0.661621,-0.002 -2.687721,-0.90899 -4.502445,-2.0154 z m 199.251748,-8.62688 c -4.15252,-4.480651 -2.64045,-10.668658 3.35845,-13.744129 4.06394,-2.083466 7.8514,-1.675025 10.67794,1.151513 3.61977,3.619769 3.31865,7.631349 -0.88864,11.838636 -4.41378,4.41378 -9.48636,4.70468 -13.14775,0.75398 z m 13.39292,-2.949667 c 1.32322,0.817793 -0.0571,-7.335345 -1.43559,-8.479356 -2.23325,-1.853429 -8.06205,-0.22458 -10.24376,2.862598 -3.9609,5.604795 1.48906,10.659325 7.66095,7.105101 1.82972,-1.053688 3.63801,-1.723443 4.0184,-1.488343 z M 75.75,92.421029 C 72.0375,89.381882 69,86.487812 69,85.989761 c 0,-0.498051 1.76381,-2.759697 3.919577,-5.025879 3.49499,-3.673998 4.157889,-3.992791 6.119552,-2.942941 1.209987,0.647565 2.426961,2.045386 2.704388,3.106268 0.329709,1.260808 1.08678,1.74404 2.185849,1.395209 C 85.778396,81.935559 90,85.310005 90,87.374846 90,88.359375 83.207726,98.108876 82.616225,97.973375 82.552301,97.958731 79.4625,95.460176 75.75,92.421029 Z m 9.215459,-1.104247 c 2.698482,-3.430563 2.277896,-5.474154 -1.324915,-6.437656 -1.572701,-0.420588 -2.599941,-0.50519 -2.282755,-0.188004 0.317186,0.317186 -0.315452,1.710891 -1.405862,3.097123 -1.857627,2.361589 -1.877305,2.63673 -0.312258,4.366088 2.206435,2.438083 2.825793,2.340681 5.32579,-0.837551 z m -5.927203,-6.409141 c 1.069441,-2.581858 1.048198,-3.239669 -0.128679,-3.984687 -2.02405,-1.281319 -2.309213,-1.190915 -4.882037,1.547731 -1.925506,2.049608 -2.104776,2.731325 -1.051869,4 2.055942,2.477259 4.667981,1.803828 6.062585,-1.563044 z m 177.559464,5.250475 c -0.34541,-0.558882 -0.0817,-3.058628 0.58594,-5.554991 1.51559,-5.666629 0.39365,-6.971559 -2.80186,-3.258848 -1.62743,1.890834 -3.00627,2.630068 -4.11331,2.205259 -1.31496,-0.504597 -0.20552,-1.988294 5.27412,-7.053286 4.39512,-4.062538 7.28857,-6.065074 7.89179,-5.461852 0.60322,0.603222 -0.0652,2.014537 -1.82299,3.849315 -2.99888,3.130152 -2.14163,5.005603 1.41738,3.100881 2.63295,-1.409114 7.18067,-0.89921 7.7624,0.870345 0.32162,0.978322 -0.14228,1.168405 -1.66896,0.683855 -2.26457,-0.718746 -9.30556,1.355549 -8.58097,2.527973 0.49495,0.800833 -1.42857,7.003153 -2.56487,8.270365 -0.41286,0.460423 -1.03326,0.379866 -1.37867,-0.179016 z M 93,81.247568 c -0.825,-0.921997 -3.384482,-3.939989 -5.687738,-6.70665 l -4.187739,-5.030291 4.667885,-4.225167 c 2.737555,-2.477915 5.037013,-3.856039 5.560502,-3.33255 0.52349,0.52349 -0.599821,2.202995 -2.716365,4.061346 -2.990475,2.625672 -3.433935,3.495808 -2.58758,5.077236 C 89.39767,73.61157 90.409137,73.499954 93.409091,70.5 96.020881,67.88821 98,67.261617 98,69.04651 c 0,0.575581 -1.347155,1.813081 -2.993677,2.75 -3.315236,1.886466 -3.524611,2.642043 -1.662016,5.997752 l 1.273437,2.294261 2.681472,-2.109246 c 1.47481,-1.160086 3.205344,-1.785475 3.845634,-1.389753 0.67952,0.419963 0.89627,0.286034 0.52067,-0.321709 -0.35392,-0.572661 0.0266,-1.59729 0.84549,-2.276953 C 103.72113,72.986553 104,73.046438 104,74.310606 c 0,1.300887 -7.859547,8.770491 -9.102992,8.651357 C 94.678654,82.941042 93.825,82.169564 93,81.247568 Z m 143.50025,-9.247157 c -0.33978,-0.549774 1.54617,-3.782357 4.19099,-7.183518 2.64482,-3.40116 5.10425,-6.62243 5.46541,-7.158377 0.37336,-0.554069 2.42253,0.424159 4.75,2.267546 5.04396,3.994896 5.59592,8.043309 1.46559,10.749605 -2.52132,1.652031 -2.78193,1.633044 -6.43387,-0.468747 l -3.80611,-2.19052 -1.96005,2.4918 c -2.15627,2.741247 -2.75071,2.982818 -3.67196,1.492211 z m 14.09981,-3.765724 c 2.18002,-1.455956 2.01296,-3.751245 -0.41185,-5.658602 -2.46917,-1.942247 -2.47367,-1.941779 -4.41798,0.459347 -1.9372,2.392333 -1.93602,2.411903 0.25252,4.184072 2.43308,1.970187 2.9693,2.089113 4.57731,1.015183 z M 107.56013,63.409254 C 103.78889,56.962427 102.41205,55.987946 100.2,58.2 c -0.855265,0.855265 -1.508598,0.891402 -2.274207,0.125793 -0.76561,-0.76561 0.591509,-2.093 4.724037,-4.620555 3.18903,-1.95049 6.22992,-3.279558 6.75752,-2.953484 0.5276,0.326075 -0.0232,1.245212 -1.22404,2.042527 -2.81382,1.868308 -2.75734,2.504021 0.66869,7.525544 4.63466,6.793003 5.31247,8.403085 3.78438,8.989468 -0.83692,0.321155 -2.71165,-1.857814 -5.07625,-5.900039 z m 123.82086,5.407277 c -0.45061,-0.724092 -0.70064,-2.236133 -0.55562,-3.360092 0.19256,-1.492516 -0.72552,-2.515266 -3.40472,-3.792889 -3.26027,-1.554712 -3.85184,-1.583307 -5.31736,-0.257029 -0.99353,0.899131 -2.17556,1.166848 -2.97377,0.673526 -0.95703,-0.591475 0.69707,-2.520684 5.95839,-6.94941 6.93381,-5.836534 9.25969,-7.060462 10.22508,-5.380637 0.49712,0.865032 -1.93772,19.20806 -2.64333,19.913674 -0.25816,0.258164 -0.83807,-0.123051 -1.28867,-0.847143 z m 0.80772,-12.307263 C 232.41404,54.579171 232.42073,53 232.20357,53 c -0.21716,0 -1.7563,0.969452 -3.42032,2.154338 l -3.02549,2.154339 2.34316,1.767449 c 2.93992,2.217583 3.57585,1.818259 4.08779,-2.566858 z m -113.63782,2.146341 c -3.21992,-4.22153 -3.42665,-9.779853 -0.47357,-12.732928 1.14252,-1.142525 2.7409,-1.82268 3.55194,-1.511454 0.82895,0.318101 1.20711,0.13303 0.86366,-0.422681 -0.98901,-1.600248 3.85916,-1.130671 6.35175,0.615209 1.31645,0.922081 2.05347,2.219302 1.73396,3.051938 -0.30565,0.7965 -0.15471,1.200345 0.33541,0.897431 0.49013,-0.302913 1.3581,0.788768 1.92882,2.425958 0.60052,1.722649 0.65996,3.210158 0.14109,3.530838 -0.49313,0.304772 -0.66074,1.168764 -0.37247,1.919984 C 133.50598,58.760945 128.99979,62 124.86233,62 c -3.08928,0 -4.21589,-0.59698 -6.31144,-3.344391 z m 9.80001,0.07708 c 2.44606,-1.788604 2.6433,-6.71308 0.39984,-9.982684 -2.46686,-3.595185 -7.03248,-3.775839 -9.26626,-0.366651 -1.41888,2.165479 -1.41314,2.754475 0.0628,6.443211 1.95268,4.880236 5.38733,6.404174 8.80362,3.906124 z M 213,58.899912 c 0,-0.696714 0.94128,-3.917937 2.09173,-7.158271 1.15045,-3.240335 1.93277,-6.050472 1.73849,-6.24475 -0.42357,-0.423572 -4.27569,3.787113 -4.45815,4.873127 -0.36615,2.179317 -3.97214,7.594553 -4.85291,7.287774 -0.59187,-0.206153 -0.97508,-3.7725 -0.91402,-8.506386 C 206.66297,44.668133 206.57642,41 206.41281,41 c -0.16361,0 -1.312,3.15 -2.55198,7 -1.26648,3.932301 -2.8256,7 -3.55766,7 -1.60521,0 -1.77654,1.03955 1.49966,-9.099467 2.65284,-8.209871 2.88528,-8.560052 5.13064,-7.729442 2.2312,0.825377 2.32085,1.202542 1.74684,7.349467 C 208.34753,49.084251 208.40319,52 208.80399,52 c 0.40081,0 2.20911,-2.475 4.01844,-5.5 3.39288,-5.672517 3.59443,-5.823052 6.26556,-4.679715 1.40869,0.602969 1.28985,1.632008 -1.05251,9.113884 -1.45227,4.638794 -3.17937,8.613794 -3.83799,8.833334 C 213.53887,59.987043 213,59.596627 213,58.899912 Z m -73.27103,-3.950606 c -2.63849,-1.597403 -1.15352,-2.89246 2.61532,-2.280861 2.33548,0.378996 3.81127,0.03313 5.02115,-1.176741 1.618,-1.617998 1.61376,-1.789146 -0.076,-3.070798 -0.98421,-0.746515 -2.57697,-1.371611 -3.53947,-1.389103 -2.17596,-0.03954 -2.29264,-1.609596 -0.17986,-2.420343 2.40145,-0.921526 1.39579,-5.045298 -1.32461,-5.431597 -1.35228,-0.192025 -2.49559,0.308199 -2.85699,1.25 C 138.76468,42.055626 136,42.647248 136,41.154988 c 0,-3.319457 8.56301,-5.591381 10.82077,-2.87095 1.11379,1.342043 1.05605,4.172477 -0.10889,5.33742 -0.37365,0.373641 0.43833,1.715179 1.80438,2.981196 1.36606,1.266016 2.48374,2.928591 2.48374,3.69461 0,3.570387 -7.76435,6.775071 -11.27103,4.652042 z m 14.6181,-3.41136 c 0.30857,-0.80413 1.55231,-5.07913 2.76387,-9.5 3.0112,-10.987633 4.58734,-10.891782 9.89744,0.601901 2.19539,4.751916 3.99162,8.801916 3.99162,9 C 171,51.837931 170.28287,52 169.40638,52 c -0.87649,0 -1.82897,-0.9 -2.11663,-2 -0.42012,-1.606544 -1.36402,-2 -4.79797,-2 -3.72597,0 -4.35554,0.321051 -4.90242,2.5 -0.34511,1.375 -1.34204,2.5 -2.2154,2.5 -0.98234,0 -1.37397,-0.557589 -1.02689,-1.462054 z m 10.00454,-6.297852 c 0.25831,-0.417949 -0.21763,-2.330449 -1.05765,-4.25 L 161.76666,37.5 l -1.33823,3 c -0.73602,1.65 -1.35852,3.5625 -1.38333,4.25 -0.0483,1.337981 4.52164,1.760045 5.30651,0.490094 z m 10.0414,5.178119 c 0.33385,-0.869984 0.61388,-4.582484 0.6223,-8.25 0.0201,-8.739333 0.39963,-9.229149 6.478,-8.359678 3.89541,0.557215 5.24983,1.261285 6.41305,3.333704 1.32152,2.354444 1.2967,2.8989 -0.2389,5.24253 C 186.30867,44.458538 185.15354,45 182.08824,45 c -3.62616,0 -3.90634,0.216843 -4.52226,3.5 -0.41752,2.22558 -1.22524,3.5 -2.21828,3.5 -1.0132,0 -1.3485,-0.555538 -0.95469,-1.581787 z m 9.75,-8.29059 c 0.35366,-0.07019 0.9281,-0.870549 1.27654,-1.77857 0.83077,-2.164958 -2.18301,-4.841793 -5.48793,-4.87437 -2.19002,-0.02159 -2.50953,0.346696 -2.16889,2.5 0.76697,4.848428 1.25983,5.169234 6.38028,4.15294 z M 152,176.60699 c 0,-0.21616 -0.69837,-0.661 -1.55194,-0.98855 -0.88992,-0.34149 -1.29132,-0.17385 -0.94098,0.39301 0.58726,0.95021 2.49292,1.40545 2.49292,0.59554 z M 155.8,167.8 c 0.93333,-0.93333 1.2,-0.93145 1.2,0.008 0,0.94305 0.42341,0.94406 1.92771,0.005 1.89127,-1.18112 1.88838,-1.23798 -0.15301,-3.00847 -2.53384,-2.19759 -3.17031,-2.27793 -2.41307,-0.3046 0.34407,0.89664 0.008,1.5 -0.8356,1.5 -0.87292,0 -1.26428,-0.76287 -1.02603,-2 0.54185,-2.8136 -1.93902,-2.52664 -3.26215,0.37733 -1.67451,3.67514 1.74457,6.24025 4.56215,3.42267 z m -11.50551,-4.41018 c 4.2734,-3.7616 4.45998,-4.12527 2.74908,-5.35841 -2.02268,-1.45788 -1.86867,-4.78829 0.57166,-12.3613 C 148.96626,141.4775 148.77978,136 147.28601,136 c -0.77223,0 -1.15744,-0.39901 -0.85604,-0.88669 0.30141,-0.48768 -0.14743,-1.46386 -0.9974,-2.16928 -1.22774,-1.01893 -1.48243,-1.02309 -1.23899,-0.0202 0.16853,0.69428 -0.46086,1.76789 -1.39864,2.3858 -1.36634,0.9003 -2.19611,0.66215 -4.17704,-1.19883 -2.18644,-2.05405 -2.44122,-2.10794 -2.20571,-0.46653 0.14645,1.02067 1.19734,2.32669 2.33532,2.90226 1.98927,1.00613 1.95574,1.09664 -0.86958,2.34725 -2.34234,1.03682 -3.24175,1.0492 -4.43245,0.061 -0.8216,-0.68186 -1.25696,-1.47661 -0.96746,-1.7661 0.28949,-0.28949 -0.11757,-1.23787 -0.90458,-2.1075 -0.78701,-0.86963 -1.46299,-1.91865 -1.50218,-2.33115 -0.0392,-0.4125 -0.40876,-0.75053 -0.82126,-0.75119 -0.4125,-6.5e-4 -0.76624,2.81128 -0.78609,6.24874 -0.0306,5.29727 0.35048,6.68813 2.5,9.12481 1.39485,1.58118 2.41067,3.308 2.25739,3.83737 -0.15329,0.52937 0.53233,1.17459 1.52359,1.43381 1.37992,0.36086 1.7755,1.39755 1.68794,4.42359 -0.0629,2.17376 0.46459,4.43278 1.1722,5.02004 0.88817,0.73711 1.01284,1.7877 0.40261,3.39273 -1.29879,3.41609 0.83888,2.70541 6.28685,-2.09008 z M 142,129.62244 c 0,-0.20765 -0.7875,-0.99515 -1.75,-1.75 -1.58606,-1.24387 -1.62143,-1.2085 -0.37756,0.37756 1.30637,1.66575 2.12756,2.19548 2.12756,1.37244 z m -5.55279,-3.70785 c -0.32197,-0.52097 -1.01165,-0.68378 -1.53262,-0.3618 -0.52097,0.32197 -0.68378,1.01165 -0.3618,1.53262 0.32197,0.52097 1.01165,0.68378 1.53262,0.3618 0.52097,-0.32197 0.68378,-1.01165 0.3618,-1.53262 z m 68.54443,-12.04298 c -1.19127,-0.83465 -1.05205,-0.94933 0.69135,-0.5695 1.98115,0.43163 2.09191,0.23604 1.1979,-2.11539 -0.98055,-2.57905 -0.97544,-2.58226 1.11004,-0.69493 2.05941,1.86374 2.08323,1.86293 1.39687,-0.0479 -1.83763,-5.11584 -5.28949,-6.16445 -4.89137,-1.48591 0.13844,1.62692 -0.19968,2.86442 -0.75137,2.75 -0.5517,-0.11441 -1.09329,0.78361 -1.20354,1.9956 -0.11024,1.21199 0.17281,1.97293 0.62902,1.69098 0.4562,-0.28195 0.82946,0.0539 0.82946,0.74638 0,1.0027 0.25279,1.00623 1.24164,0.0174 0.98886,-0.98886 0.93796,-1.45442 -0.25,-2.28675 z M 209,104 c 0,-0.55 -0.45,-1 -1,-1 -0.55,0 -1,0.45 -1,1 0,0.55 0.45,1 1,1 0.55,0 1,-0.45 1,-1 z m 0.59549,-12.154508 c 0.44465,-0.719449 0.27404,-0.882892 -0.45273,-0.433725 -0.75635,0.467453 -1.38065,-0.351205 -1.77626,-2.32926 -0.3355,-1.677525 -0.97412,-2.825009 -1.41916,-2.549964 -0.44503,0.275044 -1.09633,0.0354 -1.44734,-0.532543 -0.35101,-0.567943 -1.08642,-0.755609 -1.63424,-0.417034 -0.59918,0.370314 -0.31068,1.372912 0.72408,2.516311 0.94608,1.045398 1.31289,1.907357 0.81515,1.915465 -0.70071,0.01141 1.26922,1.338438 4.28599,2.88721 0.10504,0.05393 0.51207,-0.421481 0.90451,-1.05646 z m -66.3161,-11.431955 c -1.70246,-1.291566 -1.70118,-1.351305 0.0296,-1.381734 1.00231,-0.01762 1.52003,-0.499391 1.16097,-1.080361 -0.45064,-0.72915 -1.03924,-0.723895 -1.93227,0.01725 -0.70632,0.586196 -2.12876,0.748793 -3.16097,0.361327 -1.65649,-0.621804 -1.71568,-0.506468 -0.50431,0.982747 0.75488,0.92798 2.01894,1.687234 2.80905,1.687234 0.79012,0 1.16164,0.444846 0.82562,0.988546 -0.35278,0.570812 0.0573,0.732122 0.97037,0.381733 1.40174,-0.537898 1.37925,-0.760121 -0.19806,-1.956742 z M 149,80.622445 c 0,-0.207656 -0.7875,-0.995156 -1.75,-1.75 C 145.66394,77.628574 145.62857,77.663944 146.87244,79.25 148.17881,80.915748 149,81.445479 149,80.622445 Z M 176.36163,79.5 c -0.31659,-0.825 -1.45402,-1.5 -2.52764,-1.5 -1.07361,0 -1.66937,0.45734 -1.32391,1.016312 0.34546,0.558971 1.01593,0.776631 1.48992,0.483688 0.47399,-0.292943 1.14446,-0.07528 1.48992,0.483688 0.94954,1.536384 1.52446,1.217371 0.87171,-0.483688 z M 192,79 c 0,-0.55 -0.7875,-0.993109 -1.75,-0.984687 -1.49555,0.01309 -1.5319,0.156261 -0.25,0.984687 1.88721,1.21961 2,1.21961 2,0 z m -29.96992,-1.36992 c -0.58196,-0.581962 -0.54546,-1.667086 0.0964,-2.866463 0.77811,-1.453914 0.64269,-2.361167 -0.54899,-3.677956 -0.87003,-0.96138 -1.2434,-2.121092 -0.8297,-2.577138 0.4137,-0.456045 0.18234,-0.500933 -0.51413,-0.09975 -0.69647,0.401183 -1.03893,1.097341 -0.76101,1.547018 0.27791,0.449678 -0.10504,1.324132 -0.85101,1.943233 -1.02538,0.850985 -1.66033,0.759319 -2.6023,-0.375682 -0.68529,-0.825727 -1.65661,-1.24754 -2.15849,-0.937362 -0.50188,0.310177 0.22411,1.914749 1.61331,3.565714 1.38919,1.650966 2.52581,3.41219 2.52581,3.91383 0,0.50164 1.11747,0.819588 2.48328,0.706551 1.54321,-0.12772 2.12876,-0.560032 1.5468,-1.141995 z M 146.68311,74.8125 c -0.31922,-0.797733 -0.55618,-0.560776 -0.60416,0.604167 -0.0434,1.054166 0.19292,1.644791 0.52522,1.3125 0.33229,-0.332292 0.36781,-1.194792 0.0789,-1.916667 z m 7.99532,0.532602 c -0.2243,-0.224302 -1.3687,-0.592872 -2.54312,-0.819044 -2.26703,-0.436589 -2.99953,1.005818 -0.88531,1.743301 1.35963,0.474266 4.0907,-0.261993 3.42843,-0.924257 z M 269.44721,63.91459 c -0.32197,-0.520968 -1.01165,-0.683779 -1.53262,-0.361804 -0.52097,0.321976 -0.68378,1.011657 -0.3618,1.532624 0.32197,0.520968 1.01165,0.683779 1.53262,0.361804 0.52097,-0.321976 0.68378,-1.011657 0.3618,-1.532624 z"
         style="fill:#333333;fill-opacity:1" />
    </g>
  </g>
</svg>
